<svg xmlns="http://www.w3.org/2000/svg" viewBox="1.5 5 21 14" width="42" height="28">
  <!-- PicasaPy sajat rajz (#411): tajkep ELOTTE|UTANA osztasban. A ket fel
       kulonbsege az EREDETI Picasa-ikonon MERT ertekekbol szamolt:
       tonus ES szin javul (enhance) (fenyesseg-szorzo 1.36, telitettseg-szorzo 0.54).
       FONTOS: a felek geometriaja MATEMATIKAILAG van elmetszve (nincs
       clipPath es nincs beagyazott <svg>) - a Qt SVG-motorja (SVG Tiny 1.2)
       MINDKETTOT FIGYELMEN KIVUL HAGYJA, emiatt korabban a jobb oldali
       reteg ravetult az egesz ikonra, es a ket fel egyformanak latszott. -->
  <defs>
  <linearGradient id="jnaeg" x1="0" y1="0" x2="0" y2="1"><stop offset="0" stop-color="#fffbf4"/><stop offset="0.55" stop-color="#ffdfc4"/><stop offset="1" stop-color="#ffc8a5"/></linearGradient>
  <linearGradient id="jnbeg" x1="0" y1="0" x2="0" y2="1"><stop offset="0" stop-color="#e4ddd2"/><stop offset="0.55" stop-color="#f0b98a"/><stop offset="1" stop-color="#e2884f"/></linearGradient>
  </defs>
  <rect x="1.5" y="5" width="21" height="14" rx="1" fill="#f2efe9" stroke="#c9c4ba" stroke-width="1"/>
  <rect x="2" y="5.5" width="10" height="8.2" fill="url(#jnaeg)"/>
  <path d="M2.00 13.60 5.00 8.30 7.30 10.80 9.60 6.60 12.00 11.20 12.00 11.20 12.00 18.50 2.00 18.50Z" fill="#f5fbff"/>
  <path d="M5.00 8.30 7.30 10.80 6.20 11.40 4.60 9.60Z" fill="#dae7ef"/>
  <path d="M9.60 6.60 12.00 11.20 10.60 11.90 8.70 8.60Z" fill="#dae7ef"/>
  <path d="M2.00 16.10 12.00 16.10 12.00 18.50 2.00 18.50Z" fill="#504542"/>
  <rect x="12" y="5.5" width="10" height="8.2" fill="url(#jnbeg)"/>
  <path d="M12.00 11.20 12.00 11.20 14.30 7.60 16.60 11.60 18.80 9.00 22.00 12.40 22.00 18.50 12.00 18.50Z" fill="#cfd9df"/>
  <path d="M12.00 11.20 12.00 11.20 12.00 11.20Z" fill="#93a5b0"/>
  <path d="M14.30 7.60 16.60 11.60 15.20 12.20 13.40 9.40Z" fill="#93a5b0"/>
  <path d="M18.80 9.00 22.00 12.40 22.00 13.60 17.80 10.40Z" fill="#93a5b0"/>
  <path d="M12.00 16.10 22.00 16.10 22.00 18.50 12.00 18.50Z" fill="#3b2c28"/>
  <path d="M12 5v14" stroke="#ffffff" stroke-width="0.6" stroke-opacity="0.85"/>
</svg>
