<?xml version="1.0" encoding="UTF-8"?>
<svg xmlns="http://www.w3.org/2000/svg" viewBox="0 0 1435 535" width="1435" height="535" shape-rendering="geometricPrecision" color-rendering="optimizeQuality" role="img" aria-labelledby="title desc">
  <!-- Fehér pirula-háttér a README-hez (#41): a logó+felirat sötét
       GitHub-témán is fehér "tányéron" ül. A belső tartalom a
       src/picasapy/app/assets/logo.svg változatlan másolata. -->
  <rect x="0" y="0" width="1435" height="535" rx="267.5" ry="267.5" fill="#ffffff"/>
  <g transform="translate(82,82)">
  <title id="title">PicasaPy logo</title>
  <desc id="desc">Clean vector reconstruction of the PicasaPy logo with one closed contour per colour.</desc>
  <path id="color-1" fill="#9348B8" fill-rule="evenodd" d="M92.66 23L93 22.86L94 22.62L95 22.53L96 22.51L97 22.53L98 22.62L99 22.86L99.33 23L100 23.29L101 23.83L101.24 24L102 24.57L102.5 25L103 25.43L103.75 26L104 26.18L105 26.82L105.25 27L106 27.58L106.47 28L107 28.51L107.5 29L108 29.5L108.5 30L109 30.5L109.5 31L110 31.5L110.5 32L111 32.5L111.5 33L112 33.5L112.5 34L113 34.5L113.5 35L114 35.5L114.5 36L115 36.5L115.5 37L116 37.5L116.5 38L117 38.49L117.53 39L118 39.42L118.75 40L119 40.18L120 40.82L120.25 41L121 41.58L121.47 42L122 42.51L122.5 43L123 43.5L123.5 44L124 44.5L124.5 45L125 45.5L125.5 46L126 46.5L126.5 47L127 47.5L127.5 48L128 48.5L128.5 49L129 49.5L129.5 50L130 50.5L130.5 51L131 51.5L131.5 52L132 52.5L132.5 53L133 53.5L133.5 54L134 54.49L134.53 55L135 55.42L135.75 56L136 56.18L137 56.82L137.25 57L138 57.58L138.47 58L139 58.51L139.5 59L140 59.5L140.5 60L141 60.5L141.5 61L142 61.5L142.5 62L143 62.5L143.5 63L144 63.5L144.5 64L145 64.5L145.5 65L146 65.5L146.5 66L147 66.5L147.5 67L148 67.5L148.5 68L149 68.5L149.5 69L150 69.5L150.5 70L151 70.49L151.53 71L152 71.42L152.75 72L153 72.18L154 72.82L154.25 73L155 73.58L155.47 74L156 74.51L156.5 75L157 75.5L157.5 76L158 76.5L158.5 77L159 77.5L159.5 78L160 78.5L160.49 79L161 79.53L161.42 80L162 80.75L162.18 81L162.81 82L163 82.28L163.5 83L164 83.73L164.18 84L164.71 85L165 85.67L165.14 86L165.38 87L165.47 88L165.47 89L165.36 90L165.05 91L165 91.08L164.4 92L164 92.46L163.49 93L163 93.5L162.5 94L162 94.5L161.5 95L161 95.49L160.47 96L160 96.42L159.25 97L159 97.18L158 97.81L157.72 98L157 98.5L156.28 99L156 99.19L155 99.82L154.75 100L154 100.57L153.5 101L153 101.43L152.25 102L152 102.18L151 102.81L150.72 103L150 103.5L149.28 104L149 104.19L148 104.82L147.75 105L147 105.57L146.5 106L146 106.43L145.25 107L145 107.18L144 107.82L143.75 108L143 108.57L142.5 109L142 109.43L141.25 110L141 110.18L140 110.82L139.75 111L139 111.57L138.5 112L138 112.43L137.25 113L137 113.18L136 113.81L135.72 114L135 114.5L134.28 115L134 115.19L133 115.82L132.75 116L132 116.57L131.5 117L131 117.43L130.25 118L130 118.18L129 118.81L128.72 119L128 119.5L127.28 120L127 120.19L126 120.82L125.75 121L125 121.57L124.5 122L124 122.43L123.25 123L123 123.18L122 123.82L121.75 124L121 124.57L120.5 125L120 125.43L119.25 126L119 126.18L118 126.81L117.72 127L117 127.5L116.28 128L116 128.19L115 128.82L114.75 129L114 129.57L113.5 130L113 130.43L112.25 131L112 131.18L111 131.81L110.72 132L110 132.5L109.28 133L109 133.19L108 133.82L107.75 134L107 134.57L106.5 135L106 135.43L105.25 136L105 136.18L104 136.82L103.75 137L103 137.57L102.5 138L102 138.43L101.25 139L101 139.18L100 139.81L99.72 140L99 140.5L98.28 141L98 141.19L97 141.82L96.75 142L96 142.57L95.5 143L95 143.43L94.25 144L94 144.18L93 144.82L92.75 145L92 145.57L91.5 146L91 146.43L90.25 147L90 147.18L89 147.81L88.72 148L88 148.5L87.28 149L87 149.19L86 149.82L85.75 150L85 150.57L84.5 151L84 151.43L83.25 152L83 152.18L82 152.82L81.75 153L81 153.57L80.5 154L80 154.43L79.25 155L79 155.18L78 155.81L77.72 156L77 156.5L76.28 157L76 157.19L75 157.82L74.75 158L74 158.57L73.5 159L73 159.43L72.25 160L72 160.18L71 160.82L70.75 161L70 161.57L69.5 162L69 162.43L68.25 163L68 163.18L67 163.81L66.72 164L66 164.5L65.28 165L65 165.19L64 165.82L63.75 166L63 166.57L62.5 167L62 167.43L61.25 168L61 168.18L60 168.81L59.72 169L59 169.5L58.28 170L58 170.19L57 170.82L56.75 171L56 171.57L55.5 172L55 172.43L54.25 173L54 173.18L53 173.82L52.75 174L52 174.57L51.5 175L51 175.43L50.25 176L50 176.18L49 176.82L48.75 177L48 177.57L47.5 178L47 178.43L46.25 179L46 179.18L45 179.81L44.72 180L44 180.5L43.28 181L43 181.19L42 181.82L41.75 182L41 182.57L40.5 183L40 183.43L39.25 184L39 184.18L38 184.82L37.75 185L37 185.57L36.5 186L36 186.43L35.25 187L35 187.18L34 187.82L33.75 188L33 188.57L32.5 189L32 189.43L31.25 190L31 190.18L30 190.81L29.72 191L29 191.5L28.28 192L28 192.19L27 192.82L26.75 193L26 193.57L25.5 194L25 194.43L24.25 195L24 195.18L23 195.82L22.75 196L22 196.57L21.5 197L21 197.43L20.25 198L20 198.18L19 198.82L18.75 199L18 199.57L17.5 200L17 200.43L16.25 201L16 201.18L15 201.81L14.72 202L14 202.5L13.27 203L13 203.18L12 203.71L11.33 204L11 204.14L10 204.38L9 204.47L8 204.49L7 204.47L6 204.38L5 204.14L4.67 204L4 203.71L3 203.17L2.76 203L2 202.42L1.54 202L1 201.45L0.6 201L0 200.08L-0.05 200L-0.37 199L-0.47 198L-0.5 197L-0.5 196L-0.5 195L-0.5 194L-0.5 193L-0.5 192L-0.5 191L-0.5 190L-0.5 189L-0.5 188L-0.5 187L-0.5 186L-0.5 185L-0.5 184L-0.5 183L-0.5 182L-0.5 181L-0.5 180L-0.5 179L-0.5 178L-0.5 177L-0.5 176L-0.5 175L-0.5 174L-0.5 173L-0.5 172L-0.5 171L-0.5 170L-0.5 169L-0.5 168L-0.5 167L-0.5 166L-0.5 165L-0.5 164L-0.5 163L-0.47 162L-0.38 161L-0.16 160L0 159.54L0.19 159L0.5 158L0.81 157L1 156.47L1.16 156L1.41 155L1.59 154L1.84 153L2 152.49L2.16 152L2.39 151L2.5 150L2.61 149L2.84 148L3 147.5L3.16 147L3.39 146L3.5 145L3.61 144L3.84 143L4 142.51L4.16 142L4.41 141L4.59 140L4.84 139L5 138.5L5.16 138L5.41 137L5.59 136L5.84 135L6 134.53L6.19 134L6.5 133L6.82 132L7 131.5L7.18 131L7.5 130L7.82 129L8 128.5L8.18 128L8.5 127L8.82 126L9 125.5L9.18 125L9.5 124L9.82 123L10 122.5L10.18 122L10.5 121L10.82 120L11 119.5L11.18 119L11.5 118L11.82 117L12 116.5L12.18 116L12.5 115L12.84 114L13 113.62L13.28 113L13.74 112L14 111.5L14.26 111L14.72 110L15 109.38L15.16 109L15.5 108L15.84 107L16 106.62L16.28 106L16.74 105L17 104.5L17.26 104L17.74 103L18 102.5L18.26 102L18.74 101L19 100.5L19.26 100L19.74 99L20 98.5L20.26 98L20.74 97L21 96.5L21.26 96L21.74 95L22 94.51L22.27 94L22.82 93L23 92.73L23.5 92L24 91.27L24.18 91L24.73 90L25 89.5L25.27 89L25.82 88L26 87.73L26.5 87L27 86.27L27.18 86L27.73 85L28 84.5L28.27 84L28.82 83L29 82.73L29.5 82L30 81.28L30.19 81L30.82 80L31 79.75L31.57 79L32 78.5L32.43 78L33 77.25L33.18 77L33.81 76L34 75.72L34.5 75L35 74.28L35.19 74L35.81 73L36 72.72L36.5 72L37 71.28L37.19 71L37.82 70L38 69.75L38.58 69L39 68.53L39.5 68L40 67.47L40.42 67L41 66.25L41.18 66L41.82 65L42 64.75L42.58 64L43 63.53L43.51 63L44 62.5L44.49 62L45 61.47L45.42 61L46 60.25L46.18 60L46.82 59L47 58.75L47.58 58L48 57.53L48.51 57L49 56.5L49.5 56L50 55.5L50.5 55L51 54.5L51.5 54L52 53.5L52.5 53L53 52.5L53.5 52L54 51.5L54.5 51L55 50.5L55.5 50L56 49.5L56.5 49L57 48.5L57.5 48L58 47.51L58.53 47L59 46.58L59.75 46L60 45.82L61 45.18L61.25 45L62 44.42L62.47 44L63 43.49L63.5 43L64 42.51L64.53 42L65 41.58L65.75 41L66 40.82L67 40.18L67.25 40L68 39.42L68.47 39L69 38.5L69.53 38L70 37.58L70.75 37L71 36.82L72 36.18L72.25 36L73 35.43L73.5 35L74 34.57L74.75 34L75 33.82L76 33.19L76.28 33L77 32.5L77.72 32L78 31.81L79 31.19L79.28 31L80 30.5L80.72 30L81 29.81L82 29.19L82.28 29L83 28.5L83.72 28L84 27.81L85 27.19L85.28 27L86 26.5L86.73 26L87 25.82L88 25.27L88.51 25L89 24.74L90 24.26L90.5 24L91 23.74L92 23.28ZM172.92 112L173 111.95L174 111.63L175 111.53L176 111.5L177 111.5L178 111.5L179 111.53L180 111.63L181 111.95L181.08 112L182 112.6L182.46 113L183 113.51L183.49 114L184 114.53L184.42 115L185 115.76L185.17 116L185.71 117L186 117.67L186.14 118L186.38 119L186.45 120L186.38 121L186.14 122L186 122.34L185.72 123L185.25 124L185 124.48L184.72 125L184.13 126L184 126.17L183.17 127L183 127.13L182 127.72L181.48 128L181 128.25L180 128.72L179.34 129L179 129.14L178 129.38L177 129.45L176 129.38L175 129.14L174.67 129L174 128.71L173 128.17L172.76 128L172 127.42L171.53 127L171 126.49L170.51 126L170 125.46L169.6 125L169 124.08L168.95 124L168.63 123L168.53 122L168.5 121L168.5 120L168.53 119L168.62 118L168.86 117L169 116.67L169.29 116L169.83 115L170 114.76L170.58 114L171 113.54L171.55 113L172 112.6Z"/>
  <path id="color-2" fill="#EF3E3A" fill-rule="evenodd" d="M160.54 0L161 -0.16L162 -0.38L163 -0.47L164 -0.5L165 -0.5L166 -0.5L167 -0.5L168 -0.5L169 -0.5L170 -0.5L171 -0.5L172 -0.5L173 -0.5L174 -0.5L175 -0.5L176 -0.5L177 -0.5L178 -0.5L179 -0.5L180 -0.5L181 -0.5L182 -0.5L183 -0.5L184 -0.5L185 -0.5L186 -0.5L187 -0.5L188 -0.5L189 -0.5L190 -0.5L191 -0.5L192 -0.5L193 -0.5L194 -0.5L195 -0.5L196 -0.47L197 -0.38L198 -0.16L198.5 0L199 0.16L200 0.39L201 0.5L202 0.61L203 0.84L203.5 1L204 1.16L205 1.39L206 1.5L207 1.61L208 1.84L208.5 2L209 2.16L210 2.39L211 2.5L212 2.61L213 2.84L213.5 3L214 3.16L215 3.39L216 3.5L217 3.61L218 3.84L218.49 4L219 4.16L220 4.41L221 4.59L222 4.84L222.5 5L223 5.16L224 5.41L225 5.59L226 5.84L226.47 6L227 6.19L228 6.5L229 6.82L229.5 7L230 7.18L231 7.5L232 7.82L232.5 8L233 8.18L234 8.5L235 8.82L235.5 9L236 9.18L237 9.5L238 9.82L238.5 10L239 10.18L240 10.5L241 10.82L241.5 11L242 11.18L243 11.5L244 11.84L244.38 12L245 12.27L246 12.73L246.62 13L247 13.17L248 13.5L249 13.84L249.38 14L250 14.28L251 14.74L251.5 15L252 15.26L253 15.74L253.5 16L254 16.26L255 16.74L255.5 17L256 17.26L257 17.72L257.62 18L258 18.17L259 18.51L260 18.92L260.14 19L261 19.52L261.73 20L262 20.18L263 20.73L263.51 21L264 21.26L265 21.74L265.49 22L266 22.27L267 22.82L267.27 23L268 23.5L268.73 24L269 24.18L270 24.73L270.5 25L271 25.27L272 25.82L272.27 26L273 26.5L273.72 27L274 27.19L275 27.82L275.25 28L276 28.58L276.47 29L277 29.51L277.49 30L278 30.53L278.42 31L279 31.76L279.17 32L279.71 33L280 33.67L280.14 34L280.38 35L280.47 36L280.47 37L280.38 38L280.16 39L280 39.49L279.84 40L279.59 41L279.41 42L279.16 43L279 43.51L278.84 44L278.61 45L278.5 46L278.39 47L278.16 48L278 48.5L277.84 49L277.61 50L277.5 51L277.39 52L277.16 53L277 53.5L276.84 54L276.61 55L276.5 56L276.39 57L276.16 58L276 58.5L275.84 59L275.61 60L275.5 61L275.39 62L275.16 63L275 63.5L274.84 64L274.61 65L274.5 66L274.39 67L274.16 68L274 68.5L273.84 69L273.61 70L273.5 71L273.39 72L273.16 73L273 73.5L272.84 74L272.61 75L272.5 76L272.39 77L272.16 78L272 78.49L271.84 79L271.59 80L271.41 81L271.16 82L271 82.51L270.84 83L270.61 84L270.5 85L270.39 86L270.16 87L270 87.5L269.84 88L269.61 89L269.5 90L269.39 91L269.16 92L269 92.49L268.84 93L268.59 94L268.41 95L268.16 96L268 96.51L267.84 97L267.61 98L267.5 99L267.39 100L267.16 101L267 101.5L266.84 102L266.61 103L266.5 104L266.39 105L266.16 106L266 106.49L265.84 107L265.59 108L265.41 109L265.16 110L265 110.51L264.84 111L264.61 112L264.5 113L264.39 114L264.16 115L264 115.49L263.84 116L263.59 117L263.41 118L263.16 119L263 119.51L262.84 120L262.61 121L262.5 122L262.39 123L262.16 124L262 124.5L261.84 125L261.61 126L261.5 127L261.39 128L261.16 129L261 129.5L260.84 130L260.61 131L260.5 132L260.39 133L260.16 134L260 134.5L259.84 135L259.61 136L259.5 137L259.39 138L259.16 139L259 139.49L258.84 140L258.59 141L258.41 142L258.16 143L258 143.51L257.84 144L257.61 145L257.5 146L257.39 147L257.16 148L257 148.49L256.84 149L256.59 150L256.41 151L256.16 152L256 152.51L255.84 153L255.61 154L255.5 155L255.39 156L255.16 157L255 157.5L254.84 158L254.61 159L254.5 160L254.39 161L254.16 162L254 162.5L253.84 163L253.61 164L253.5 165L253.39 166L253.16 167L253 167.49L252.84 168L252.59 169L252.41 170L252.16 171L252 171.51L251.84 172L251.61 173L251.5 174L251.39 175L251.16 176L251 176.5L250.84 177L250.61 178L250.5 179L250.39 180L250.16 181L250 181.49L249.84 182L249.59 183L249.41 184L249.14 185L249 185.34L248.72 186L248.26 187L248 187.5L247.74 188L247.26 189L247 189.49L246.73 190L246.18 191L246 191.27L245.5 192L245 192.72L244.81 193L244.18 194L244 194.25L243.42 195L243 195.47L242.49 196L242 196.49L241.47 197L241 197.42L240.25 198L240 198.18L239 198.81L238.72 199L238 199.5L237.27 200L237 200.18L236 200.71L235.37 201L235 201.16L234 201.5L233 201.81L232.47 202L232 202.16L231 202.41L230 202.59L229 202.84L228.49 203L228 203.16L227 203.38L226 203.47L225 203.5L224 203.5L223 203.5L222 203.5L221 203.5L220 203.5L219 203.5L218 203.5L217 203.5L216 203.5L215 203.5L214 203.5L213 203.5L212 203.5L211 203.5L210 203.5L209 203.5L208 203.5L207 203.5L206 203.5L205 203.5L204 203.5L203 203.5L202 203.5L201 203.5L200 203.5L199 203.5L198 203.5L197 203.5L196 203.5L195 203.5L194 203.5L193 203.5L192 203.5L191 203.5L190 203.5L189 203.5L188 203.5L187 203.5L186 203.5L185 203.5L184 203.5L183 203.5L182 203.5L181 203.5L180 203.5L179 203.5L178 203.5L177 203.5L176 203.5L175 203.5L174 203.5L173 203.5L172 203.5L171 203.5L170 203.5L169 203.5L168 203.5L167 203.5L166 203.5L165 203.5L164 203.5L163 203.53L162 203.62L161 203.84L160.51 204L160 204.16L159 204.41L158 204.59L157 204.84L156.54 205L156 205.19L155 205.52L154 205.92L153.86 206L153 206.52L152.29 207L152 207.19L151 207.82L150.75 208L150 208.58L149.53 209L149 209.51L148.5 210L148 210.5L147.5 211L147 211.5L146.51 212L146 212.53L145.58 213L145 213.75L144.82 214L144.19 215L144 215.29L143.52 216L143 216.86L142.92 217L142.52 218L142.19 219L142 219.5L141.82 220L141.5 221L141.19 222L141 222.54L140.84 223L140.61 224L140.5 225L140.39 226L140.16 227L140 227.5L139.84 228L139.62 229L139.55 230L139.62 231L139.84 232L140 232.5L140.16 233L140.39 234L140.5 235L140.61 236L140.84 237L141 237.49L141.16 238L141.41 239L141.59 240L141.86 241L142 241.34L142.28 242L142.74 243L143 243.5L143.26 244L143.74 245L144 245.5L144.26 246L144.72 247L145 247.67L145.13 248L145.35 249L145.33 250L145 250.97L144.99 251L144 251.99L143.99 252L143 252.36L142 252.5L141 252.61L140 252.84L139.5 253L139 253.16L138 253.38L137 253.45L136 253.36L135 253.04L134.93 253L134 252.36L133.64 252L133 251.11L132.93 251L132.52 250L132.19 249L132 248.5L131.82 248L131.5 247L131.19 246L131 245.47L130.84 245L130.59 244L130.41 243L130.16 242L130 241.53L129.81 241L129.5 240L129.18 239L129 238.5L128.82 238L128.5 237L128.18 236L128 235.5L127.82 235L127.5 234L127.18 233L127 232.5L126.82 232L126.5 231L126.19 230L126 229.47L125.84 229L125.59 228L125.41 227L125.16 226L125 225.53L124.81 225L124.5 224L124.18 223L124 222.5L123.82 222L123.5 221L123.18 220L123 219.5L122.82 219L122.5 218L122.18 217L122 216.5L121.82 216L121.5 215L121.18 214L121 213.5L120.82 213L120.5 212L120.19 211L120 210.47L119.84 210L119.59 209L119.41 208L119.16 207L119 206.53L118.81 206L118.5 205L118.18 204L118 203.5L117.82 203L117.5 202L117.18 201L117 200.5L116.82 200L116.5 199L116.18 198L116 197.5L115.82 197L115.5 196L115.18 195L115 194.5L114.82 194L114.5 193L114.18 192L114 191.5L113.82 191L113.5 190L113.18 189L113 188.5L112.82 188L112.5 187L112.18 186L112 185.5L111.82 185L111.5 184L111.19 183L111 182.46L110.84 182L110.62 181L110.53 180L110.5 179L110.5 178L110.5 177L110.5 176L110.5 175L110.5 174L110.5 173L110.5 172L110.5 171L110.53 170L110.62 169L110.84 168L111 167.54L111.19 167L111.5 166L111.84 165L112 164.63L112.29 164L112.82 163L113 162.73L113.5 162L114 161.28L114.19 161L114.82 160L115 159.75L115.58 159L116 158.53L116.51 158L117 157.5L117.5 157L118 156.5L118.5 156L119 155.5L119.5 155L120 154.51L120.53 154L121 153.58L121.76 153L122 152.83L123 152.27L123.51 152L124 151.74L125 151.26L125.5 151L126 150.74L127 150.28L127.66 150L128 149.86L129 149.59L130 149.41L131 149.16L131.51 149L132 148.84L133 148.62L134 148.53L135 148.5L136 148.5L137 148.5L138 148.5L139 148.5L140 148.5L141 148.5L142 148.5L143 148.5L144 148.5L145 148.5L146 148.5L147 148.5L148 148.5L149 148.5L150 148.5L151 148.5L152 148.5L153 148.5L154 148.5L155 148.5L156 148.5L157 148.5L158 148.5L159 148.5L160 148.5L161 148.5L162 148.5L163 148.5L164 148.5L165 148.5L166 148.5L167 148.5L168 148.5L169 148.5L170 148.5L171 148.5L172 148.5L173 148.5L174 148.5L175 148.5L176 148.5L177 148.5L178 148.5L179 148.5L180 148.5L181 148.5L182 148.5L183 148.5L184 148.5L185 148.5L186 148.5L187 148.5L188 148.5L189 148.5L190 148.5L191 148.5L192 148.5L193 148.5L194 148.5L195 148.5L196 148.5L197 148.5L198 148.5L199 148.5L200 148.5L201 148.5L202 148.5L203 148.5L204 148.5L205 148.47L206 148.38L207 148.16L207.49 148L208 147.84L209 147.59L210 147.41L211 147.16L211.46 147L212 146.81L213 146.48L214 146.08L214.14 146L215 145.48L215.71 145L216 144.81L217 144.18L217.25 144L218 143.42L218.47 143L219 142.49L219.5 142L220 141.5L220.49 141L221 140.47L221.42 140L222 139.25L222.18 139L222.81 138L223 137.71L223.48 137L224 136.14L224.08 136L224.48 135L224.81 134L225 133.46L225.16 133L225.39 132L225.5 131L225.61 130L225.84 129L226 128.49L226.16 128L226.36 127L226.36 126L226.16 125L226 124.51L225.83 124L225.59 123L225.41 122L225.14 121L225 120.66L224.72 120L224.25 119L224 118.51L223.73 118L223.17 117L223 116.76L222.42 116L222 115.53L221.49 115L221 114.5L220.5 114L220 113.5L219.5 113L219 112.5L218.5 112L218 111.5L217.5 111L217 110.5L216.5 110L216 109.5L215.5 109L215 108.5L214.5 108L214 107.5L213.5 107L213 106.5L212.5 106L212 105.5L211.5 105L211 104.5L210.5 104L210 103.5L209.5 103L209 102.5L208.5 102L208 101.5L207.5 101L207 100.5L206.5 100L206 99.5L205.5 99L205 98.5L204.5 98L204 97.5L203.5 97L203 96.51L202.47 96L202 95.58L201.25 95L201 94.82L200 94.18L199.75 94L199 93.42L198.53 93L198 92.49L197.5 92L197 91.5L196.5 91L196 90.5L195.5 90L195 89.5L194.5 89L194 88.5L193.5 88L193 87.5L192.5 87L192 86.5L191.5 86L191 85.5L190.5 85L190 84.5L189.5 84L189 83.5L188.5 83L188 82.5L187.5 82L187 81.51L186.47 81L186 80.58L185.25 80L185 79.82L184 79.18L183.75 79L183 78.42L182.53 78L182 77.49L181.5 77L181 76.5L180.5 76L180 75.5L179.5 75L179 74.5L178.5 74L178 73.5L177.5 73L177 72.5L176.5 72L176 71.5L175.5 71L175 70.5L174.5 70L174 69.5L173.5 69L173 68.5L172.5 68L172 67.5L171.5 67L171 66.5L170.5 66L170 65.51L169.47 65L169 64.58L168.25 64L168 63.82L167 63.18L166.75 63L166 62.42L165.53 62L165 61.49L164.5 61L164 60.5L163.5 60L163 59.5L162.5 59L162 58.5L161.5 58L161 57.5L160.5 57L160 56.5L159.5 56L159 55.5L158.5 55L158 54.5L157.5 54L157 53.5L156.5 53L156 52.5L155.5 52L155 51.5L154.5 51L154 50.5L153.5 50L153 49.51L152.47 49L152 48.58L151.25 48L151 47.82L150 47.18L149.75 47L149 46.42L148.53 46L148 45.49L147.5 45L147 44.5L146.5 44L146 43.5L145.5 43L145 42.5L144.5 42L144 41.5L143.5 41L143 40.5L142.5 40L142 39.5L141.5 39L141 38.5L140.5 38L140 37.5L139.5 37L139 36.5L138.5 36L138 35.5L137.5 35L137 34.5L136.5 34L136 33.51L135.47 33L135 32.58L134.25 32L134 31.82L133 31.18L132.75 31L132 30.42L131.53 30L131 29.49L130.5 29L130 28.5L129.5 28L129 27.5L128.5 27L128 26.5L127.5 26L127 25.5L126.51 25L126 24.47L125.58 24L125 23.25L124.82 23L124.18 22L124 21.75L123.43 21L123 20.49L122.59 20L122 19.12L121.93 19L121.52 18L121.22 17L121 16.08L120.98 16L120.98 15L121 14.92L121.22 14L121.52 13L121.93 12L122 11.88L122.6 11L123 10.55L123.54 10L124 9.58L124.76 9L125 8.83L126 8.29L126.63 8L127 7.84L128 7.5L129 7.19L129.53 7L130 6.84L131 6.59L132 6.41L133 6.16L133.5 6L134 5.84L135 5.59L136 5.41L137 5.16L137.5 5L138 4.84L139 4.59L140 4.41L141 4.16L141.51 4L142 3.84L143 3.61L144 3.5L145 3.39L146 3.16L146.5 3L147 2.84L148 2.62L149 2.52L150 2.48L151 2.38L152 2.16L152.5 2L153 1.84L154 1.61L155 1.5L156 1.39L157 1.16L157.46 1L158 0.81L159 0.5L160 0.19Z"/>
  <path id="color-3" fill="#F8B813" fill-rule="evenodd" d="M298.67 52L299 51.86L300 51.62L301 51.53L302 51.53L303 51.64L304 51.95L304.08 52L305 52.59L305.49 53L306 53.43L306.75 54L307 54.18L308 54.82L308.25 55L309 55.58L309.46 56L310 56.54L310.42 57L311 57.75L311.18 58L311.82 59L312 59.25L312.58 60L313 60.47L313.51 61L314 61.5L314.5 62L315 62.5L315.5 63L316 63.5L316.49 64L317 64.53L317.42 65L318 65.75L318.18 66L318.82 67L319 67.25L319.58 68L320 68.47L320.51 69L321 69.5L321.49 70L322 70.53L322.42 71L323 71.75L323.18 72L323.81 73L324 73.28L324.5 74L325 74.72L325.19 75L325.82 76L326 76.25L326.57 77L327 77.5L327.43 78L328 78.75L328.18 79L328.81 80L329 80.28L329.5 81L330 81.72L330.19 82L330.81 83L331 83.28L331.5 84L332 84.72L332.19 85L332.81 86L333 86.28L333.5 87L334 87.72L334.19 88L334.81 89L335 89.28L335.5 90L336 90.73L336.18 91L336.73 92L337 92.5L337.27 93L337.82 94L338 94.27L338.5 95L339 95.73L339.18 96L339.73 97L340 97.51L340.26 98L340.74 99L341 99.5L341.26 100L341.74 101L342 101.5L342.26 102L342.74 103L343 103.5L343.26 104L343.74 105L344 105.5L344.26 106L344.74 107L345 107.5L345.26 108L345.74 109L346 109.5L346.26 110L346.72 111L347 111.62L347.16 112L347.5 113L347.84 114L348 114.38L348.28 115L348.74 116L349 116.5L349.26 117L349.72 118L350 118.62L350.16 119L350.5 120L350.83 121L351 121.38L351.27 122L351.73 123L352 123.62L352.16 124L352.5 125L352.82 126L353 126.5L353.18 127L353.5 128L353.82 129L354 129.5L354.18 130L354.5 131L354.81 132L355 132.53L355.16 133L355.41 134L355.59 135L355.84 136L356 136.47L356.19 137L356.5 138L356.81 139L357 139.53L357.16 140L357.41 141L357.59 142L357.84 143L358 143.5L358.16 144L358.41 145L358.59 146L358.84 147L359 147.51L359.16 148L359.39 149L359.5 150L359.61 151L359.84 152L360 152.5L360.16 153L360.38 154L360.48 155L360.52 156L360.62 157L360.84 158L361 158.5L361.16 159L361.38 160L361.47 161L361.5 162L361.53 163L361.62 164L361.84 165L362 165.5L362.16 166L362.38 167L362.47 168L362.5 169L362.5 170L362.5 171L362.5 172L362.5 173L362.5 174L362.5 175L362.5 176L362.5 177L362.5 178L362.5 179L362.5 180L362.5 181L362.5 182L362.5 183L362.5 184L362.5 185L362.5 186L362.5 187L362.5 188L362.5 189L362.5 190L362.5 191L362.5 192L362.5 193L362.5 194L362.5 195L362.5 196L362.5 197L362.5 198L362.5 199L362.5 200L362.5 201L362.5 202L362.5 203L362.47 204L362.38 205L362.16 206L362 206.5L361.84 207L361.62 208L361.53 209L361.5 210L361.5 211L361.47 212L361.38 213L361.16 214L361 214.5L360.84 215L360.62 216L360.52 217L360.48 218L360.38 219L360.16 220L360 220.5L359.84 221L359.61 222L359.5 223L359.39 224L359.16 225L359 225.49L358.84 226L358.59 227L358.41 228L358.16 229L358 229.5L357.84 230L357.59 231L357.41 232L357.16 233L357 233.5L356.84 234L356.59 235L356.41 236L356.14 237L356 237.34L355.72 238L355.25 239L355 239.49L354.73 240L354.17 241L354 241.23L353.39 242L353 242.39L352.23 243L352 243.17L351 243.71L350.33 244L350 244.14L349 244.38L348 244.47L347 244.5L346 244.5L345 244.5L344 244.5L343 244.5L342 244.5L341 244.5L340 244.5L339 244.5L338 244.5L337 244.5L336 244.5L335 244.5L334 244.5L333 244.5L332 244.5L331 244.5L330 244.5L329 244.5L328 244.5L327 244.5L326 244.5L325 244.5L324 244.5L323 244.5L322 244.5L321 244.5L320 244.5L319 244.5L318 244.5L317 244.5L316 244.5L315 244.5L314 244.5L313 244.5L312 244.5L311 244.5L310 244.5L309 244.5L308 244.5L307 244.5L306 244.5L305 244.5L304 244.5L303 244.5L302 244.5L301 244.5L300 244.5L299 244.5L298 244.5L297 244.5L296 244.5L295 244.5L294 244.5L293 244.5L292 244.5L291 244.5L290 244.47L289 244.38L288 244.16L287.5 244L287 243.84L286 243.62L285 243.53L284 243.5L283 243.5L282 243.5L281 243.5L280 243.5L279 243.5L278 243.5L277 243.5L276 243.5L275 243.5L274 243.5L273 243.5L272 243.5L271 243.5L270 243.5L269 243.5L268 243.5L267 243.5L266 243.5L265 243.5L264 243.5L263 243.5L262 243.5L261 243.5L260 243.5L259 243.5L258 243.5L257 243.5L256 243.5L255 243.5L254 243.5L253 243.5L252 243.5L251 243.5L250 243.47L249 243.38L248 243.13L247.72 243L247 242.65L246.13 242L246 241.87L245.36 241L245 240.23L244.9 240L244.75 239L244.89 238L245 237.73L245.3 237L245.83 236L246 235.76L246.58 235L247 234.53L247.51 234L248 233.5L248.5 233L249 232.5L249.5 232L250 231.5L250.49 231L251 230.47L251.42 230L252 229.25L252.18 229L252.81 228L253 227.72L253.5 227L254 226.27L254.18 226L254.73 225L255 224.49L255.26 224L255.74 223L256 222.5L256.26 222L256.74 221L257 220.5L257.26 220L257.72 219L258 218.38L258.16 218L258.5 217L258.82 216L259 215.5L259.18 215L259.5 214L259.81 213L260 212.47L260.16 212L260.41 211L260.59 210L260.84 209L261 208.49L261.16 208L261.39 207L261.5 206L261.61 205L261.84 204L262 203.51L262.16 203L262.41 202L262.59 201L262.84 200L263 199.49L263.16 199L263.39 198L263.5 197L263.61 196L263.84 195L264 194.51L264.16 194L264.41 193L264.59 192L264.84 191L265 190.49L265.16 190L265.39 189L265.5 188L265.61 187L265.84 186L266 185.51L266.16 185L266.41 184L266.59 183L266.84 182L267 181.49L267.16 181L267.39 180L267.5 179L267.61 178L267.84 177L268 176.5L268.16 176L268.39 175L268.5 174L268.61 173L268.84 172L269 171.5L269.16 171L269.39 170L269.5 169L269.61 168L269.84 167L270 166.51L270.16 166L270.41 165L270.59 164L270.84 163L271 162.49L271.16 162L271.39 161L271.5 160L271.61 159L271.84 158L272 157.5L272.16 157L272.39 156L272.5 155L272.61 154L272.84 153L273 152.51L273.16 152L273.41 151L273.59 150L273.84 149L274 148.49L274.16 148L274.39 147L274.5 146L274.61 145L274.84 144L275 143.5L275.16 143L275.39 142L275.5 141L275.61 140L275.84 139L276 138.51L276.16 138L276.41 137L276.59 136L276.84 135L277 134.49L277.16 134L277.39 133L277.5 132L277.61 131L277.84 130L278 129.51L278.16 129L278.41 128L278.59 127L278.84 126L279 125.49L279.16 125L279.39 124L279.5 123L279.61 122L279.84 121L280 120.51L280.16 120L280.41 119L280.59 118L280.84 117L281 116.49L281.16 116L281.39 115L281.5 114L281.61 113L281.84 112L282 111.5L282.16 111L282.39 110L282.5 109L282.61 108L282.84 107L283 106.51L283.16 106L283.41 105L283.59 104L283.84 103L284 102.49L284.16 102L284.39 101L284.5 100L284.61 99L284.84 98L285 97.5L285.16 97L285.39 96L285.5 95L285.61 94L285.84 93L286 92.5L286.16 92L286.39 91L286.5 90L286.61 89L286.84 88L287 87.51L287.16 87L287.41 86L287.59 85L287.84 84L288 83.49L288.16 83L288.39 82L288.5 81L288.61 80L288.84 79L289 78.5L289.16 78L289.39 77L289.5 76L289.61 75L289.84 74L290 73.51L290.16 73L290.41 72L290.59 71L290.84 70L291 69.49L291.16 69L291.39 68L291.5 67L291.61 66L291.84 65L292 64.5L292.16 64L292.39 63L292.5 62L292.61 61L292.84 60L293 59.54L293.19 59L293.5 58L293.84 57L294 56.63L294.29 56L294.83 55L295 54.77L295.61 54L296 53.61L296.77 53L297 52.83L298 52.29ZM185.67 223L186 222.86L187 222.62L188 222.53L189 222.53L190 222.62L191 222.86L191.34 223L192 223.28L193 223.75L193.48 224L194 224.28L195 224.87L195.17 225L196 225.83L196.13 226L196.72 227L197 227.52L197.25 228L197.72 229L198 229.66L198.14 230L198.38 231L198.45 232L198.38 233L198.16 234L198 234.46L197.81 235L197.48 236L197.07 237L197 237.12L196.4 238L196 238.45L195.46 239L195 239.42L194.24 240L194 240.17L193 240.71L192.33 241L192 241.14L191 241.38L190 241.47L189 241.49L188 241.47L187 241.38L186 241.14L185.67 241L185 240.71L184 240.17L183.76 240L183 239.42L182.54 239L182 238.46L181.58 238L181 237.24L180.83 237L180.29 236L180 235.33L179.86 235L179.62 234L179.53 233L179.51 232L179.53 231L179.62 230L179.86 229L180 228.67L180.29 228L180.83 227L181 226.76L181.58 226L182 225.54L182.54 225L183 224.58L183.76 224L184 223.83L185 223.29Z"/>
  <path id="color-4" fill="#13A65A" fill-rule="evenodd" d="M139.67 253L140 252.86L141 252.62L142 252.53L143 252.5L144 252.5L145 252.5L146 252.5L147 252.53L148 252.62L149 252.86L149.34 253L150 253.28L151 253.75L151.49 254L152 254.27L153 254.82L153.27 255L154 255.5L154.73 256L155 256.18L156 256.71L156.63 257L157 257.16L158 257.5L159 257.82L159.5 258L160 258.18L161 258.5L162 258.81L162.54 259L163 259.16L164 259.38L165 259.48L166 259.52L167 259.62L168 259.84L168.5 260L169 260.16L170 260.38L171 260.47L172 260.5L173 260.5L174 260.5L175 260.5L176 260.5L177 260.5L178 260.5L179 260.5L180 260.5L181 260.5L182 260.5L183 260.5L184 260.5L185 260.5L186 260.5L187 260.5L188 260.5L189 260.5L190 260.5L191 260.5L192 260.5L193 260.5L194 260.5L195 260.5L196 260.5L197 260.5L198 260.5L199 260.5L200 260.5L201 260.5L202 260.5L203 260.5L204 260.5L205 260.5L206 260.5L207 260.5L208 260.5L209 260.5L210 260.5L211 260.5L212 260.5L213 260.5L214 260.5L215 260.5L216 260.5L217 260.5L218 260.5L219 260.5L220 260.5L221 260.5L222 260.5L223 260.5L224 260.5L225 260.5L226 260.5L227 260.5L228 260.5L229 260.5L230 260.5L231 260.5L232 260.5L233 260.5L234 260.5L235 260.5L236 260.5L237 260.5L238 260.5L239 260.5L240 260.5L241 260.5L242 260.5L243 260.5L244 260.5L245 260.5L246 260.5L247 260.5L248 260.5L249 260.5L250 260.5L251 260.5L252 260.5L253 260.5L254 260.5L255 260.5L256 260.5L257 260.5L258 260.5L259 260.5L260 260.5L261 260.5L262 260.53L263 260.62L264 260.84L264.5 261L265 261.16L266 261.38L267 261.47L268 261.5L269 261.5L270 261.5L271 261.5L272 261.5L273 261.5L274 261.5L275 261.5L276 261.5L277 261.5L278 261.5L279 261.5L280 261.5L281 261.5L282 261.5L283 261.5L284 261.5L285 261.5L286 261.5L287 261.5L288 261.5L289 261.5L290 261.5L291 261.5L292 261.5L293 261.5L294 261.5L295 261.5L296 261.5L297 261.5L298 261.5L299 261.5L300 261.5L301 261.5L302 261.5L303 261.5L304 261.5L305 261.5L306 261.5L307 261.5L308 261.5L309 261.5L310 261.5L311 261.5L312 261.5L313 261.5L314 261.5L315 261.5L316 261.5L317 261.5L318 261.5L319 261.5L320 261.5L321 261.5L322 261.5L323 261.5L324 261.5L325 261.5L326 261.5L327 261.5L328 261.5L329 261.5L330 261.5L331 261.5L332 261.5L333 261.5L334 261.53L335 261.62L336 261.86L336.33 262L337 262.29L338 262.83L338.23 263L339 263.61L339.39 264L340 264.77L340.17 265L340.71 266L341 266.67L341.14 267L341.38 268L341.45 269L341.38 270L341.16 271L341 271.46L340.81 272L340.5 273L340.16 274L340 274.38L339.72 275L339.25 276L339 276.49L338.73 277L338.18 278L338 278.27L337.5 279L337 279.73L336.82 280L336.27 281L336 281.5L335.73 282L335.18 283L335 283.27L334.5 284L334 284.72L333.81 285L333.19 286L333 286.28L332.5 287L332 287.72L331.81 288L331.19 289L331 289.28L330.5 290L330 290.72L329.81 291L329.19 292L329 292.28L328.5 293L328 293.72L327.81 294L327.18 295L327 295.25L326.43 296L326 296.5L325.57 297L325 297.75L324.82 298L324.18 299L324 299.25L323.43 300L323 300.5L322.57 301L322 301.75L321.82 302L321.18 303L321 303.25L320.42 304L320 304.47L319.49 305L319 305.5L318.51 306L318 306.53L317.58 307L317 307.75L316.82 308L316.18 309L316 309.25L315.42 310L315 310.47L314.49 311L314 311.5L313.5 312L313 312.5L312.5 313L312 313.5L311.5 314L311 314.5L310.5 315L310 315.5L309.5 316L309 316.5L308.5 317L308 317.5L307.5 318L307 318.5L306.5 319L306 319.5L305.5 320L305 320.5L304.5 321L304 321.5L303.5 322L303 322.5L302.5 323L302 323.49L301.47 324L301 324.42L300.25 325L300 325.18L299 325.82L298.75 326L298 326.58L297.53 327L297 327.51L296.5 328L296 328.49L295.47 329L295 329.42L294.25 330L294 330.18L293 330.82L292.75 331L292 331.57L291.5 332L291 332.43L290.25 333L290 333.18L289 333.82L288.75 334L288 334.57L287.5 335L287 335.43L286.25 336L286 336.18L285 336.81L284.72 337L284 337.5L283.28 338L283 338.19L282 338.81L281.72 339L281 339.5L280.28 340L280 340.19L279 340.81L278.72 341L278 341.5L277.28 342L277 342.19L276 342.81L275.72 343L275 343.5L274.27 344L274 344.18L273 344.73L272.5 345L272 345.27L271 345.82L270.73 346L270 346.5L269.27 347L269 347.18L268 347.73L267.49 348L267 348.26L266 348.74L265.5 349L265 349.26L264 349.74L263.5 350L263 350.26L262 350.74L261.5 351L261 351.26L260 351.74L259.5 352L259 352.26L258 352.74L257.5 353L257 353.26L256 353.74L255.5 354L255 354.26L254 354.74L253.5 355L253 355.26L252 355.72L251.38 356L251 356.16L250 356.5L249 356.83L248.62 357L248 357.27L247 357.73L246.38 358L246 358.16L245 358.5L244 358.82L243.5 359L243 359.18L242 359.5L241 359.82L240.5 360L240 360.18L239 360.5L238 360.82L237.5 361L237 361.18L236 361.5L235 361.82L234.5 362L234 362.18L233 362.5L232 362.82L231.5 363L231 363.18L230 363.5L229 363.81L228.47 364L228 364.16L227 364.41L226 364.59L225 364.84L224.5 365L224 365.16L223 365.41L222 365.59L221 365.84L220.49 366L220 366.16L219 366.39L218 366.5L217 366.61L216 366.84L215.5 367L215 367.16L214 367.39L213 367.5L212 367.61L211 367.84L210.5 368L210 368.16L209 368.39L208 368.5L207 368.61L206 368.84L205.51 369L205 369.16L204 369.41L203 369.59L202 369.84L201.49 370L201 370.16L200 370.38L199 370.47L198 370.5L197 370.5L196 370.5L195 370.5L194 370.5L193 370.5L192 370.5L191 370.5L190 370.5L189 370.5L188 370.5L187 370.5L186 370.5L185 370.5L184 370.5L183 370.5L182 370.5L181 370.5L180 370.5L179 370.5L178 370.5L177 370.5L176 370.47L175 370.37L174 370.05L173.92 370L173 369.4L172.54 369L172 368.49L171.5 368L171 367.5L170.51 367L170 366.46L169.6 366L169 365.12L168.93 365L168.52 364L168.19 363L168 362.5L167.82 362L167.5 361L167.18 360L167 359.5L166.82 359L166.5 358L166.18 357L166 356.5L165.82 356L165.5 355L165.18 354L165 353.5L164.82 353L164.5 352L164.18 351L164 350.5L163.82 350L163.5 349L163.19 348L163 347.47L162.84 347L162.59 346L162.41 345L162.16 344L162 343.53L161.81 343L161.5 342L161.18 341L161 340.5L160.82 340L160.5 339L160.18 338L160 337.5L159.82 337L159.5 336L159.18 335L159 334.5L158.82 334L158.5 333L158.18 332L158 331.5L157.82 331L157.5 330L157.18 329L157 328.5L156.82 328L156.5 327L156.19 326L156 325.47L155.84 325L155.59 324L155.41 323L155.16 322L155 321.53L154.81 321L154.5 320L154.18 319L154 318.5L153.82 318L153.5 317L153.18 316L153 315.5L152.82 315L152.5 314L152.18 313L152 312.5L151.82 312L151.5 311L151.18 310L151 309.5L150.82 309L150.5 308L150.19 307L150 306.47L149.84 306L149.59 305L149.41 304L149.16 303L149 302.53L148.81 302L148.5 301L148.18 300L148 299.5L147.82 299L147.5 298L147.18 297L147 296.5L146.82 296L146.5 295L146.18 294L146 293.5L145.82 293L145.5 292L145.19 291L145 290.47L144.84 290L144.59 289L144.41 288L144.16 287L144 286.53L143.81 286L143.5 285L143.18 284L143 283.5L142.82 283L142.5 282L142.18 281L142 280.5L141.82 280L141.5 279L141.18 278L141 277.5L140.82 277L140.5 276L140.18 275L140 274.5L139.82 274L139.5 273L139.19 272L139 271.47L138.84 271L138.59 270L138.41 269L138.16 268L138 267.53L137.81 267L137.5 266L137.19 265L137 264.47L136.84 264L136.59 263L136.41 262L136.17 261L136 260.49L135.84 260L135.64 259L135.65 258L135.87 257L136 256.68L136.3 256L136.87 255L137 254.84L137.84 254L138 253.87L139 253.3Z"/>
  <path id="color-5" fill="#3478DB" fill-rule="evenodd" d="M81.66 175L82 174.86L83 174.62L84 174.53L85 174.53L86 174.64L87 174.95L87.08 175L88 175.6L88.46 176L89 176.51L89.49 177L90 177.53L90.42 178L91 178.76L91.17 179L91.73 180L92 180.51L92.25 181L92.72 182L93 182.62L93.16 183L93.5 184L93.82 185L94 185.5L94.18 186L94.5 187L94.82 188L95 188.5L95.18 189L95.5 190L95.82 191L96 191.5L96.18 192L96.5 193L96.82 194L97 194.5L97.18 195L97.5 196L97.81 197L98 197.53L98.16 198L98.41 199L98.59 200L98.84 201L99 201.47L99.19 202L99.5 203L99.82 204L100 204.5L100.18 205L100.5 206L100.82 207L101 207.5L101.18 208L101.5 209L101.82 210L102 210.5L102.18 211L102.5 212L102.82 213L103 213.5L103.18 214L103.5 215L103.82 216L104 216.5L104.18 217L104.5 218L104.82 219L105 219.5L105.18 220L105.5 221L105.82 222L106 222.5L106.18 223L106.5 224L106.82 225L107 225.5L107.18 226L107.5 227L107.82 228L108 228.5L108.18 229L108.5 230L108.82 231L109 231.5L109.18 232L109.5 233L109.82 234L110 234.5L110.18 235L110.5 236L110.81 237L111 237.53L111.16 238L111.41 239L111.59 240L111.84 241L112 241.47L112.19 242L112.5 243L112.82 244L113 244.5L113.18 245L113.5 246L113.82 247L114 247.5L114.18 248L114.5 249L114.82 250L115 250.5L115.18 251L115.5 252L115.82 253L116 253.5L116.18 254L116.5 255L116.82 256L117 256.5L117.18 257L117.5 258L117.81 259L118 259.53L118.16 260L118.41 261L118.59 262L118.84 263L119 263.47L119.19 264L119.5 265L119.82 266L120 266.5L120.18 267L120.5 268L120.82 269L121 269.5L121.18 270L121.5 271L121.82 272L122 272.5L122.18 273L122.5 274L122.82 275L123 275.5L123.18 276L123.5 277L123.82 278L124 278.5L124.18 279L124.5 280L124.81 281L125 281.53L125.16 282L125.41 283L125.59 284L125.84 285L126 285.47L126.19 286L126.5 287L126.82 288L127 288.5L127.18 289L127.5 290L127.82 291L128 291.5L128.18 292L128.5 293L128.82 294L129 294.5L129.18 295L129.5 296L129.81 297L130 297.53L130.16 298L130.41 299L130.59 300L130.84 301L131 301.47L131.19 302L131.5 303L131.82 304L132 304.5L132.18 305L132.5 306L132.82 307L133 307.5L133.18 308L133.5 309L133.82 310L134 310.5L134.18 311L134.5 312L134.82 313L135 313.5L135.18 314L135.5 315L135.81 316L136 316.53L136.16 317L136.41 318L136.59 319L136.84 320L137 320.47L137.19 321L137.5 322L137.82 323L138 323.5L138.18 324L138.5 325L138.82 326L139 326.5L139.18 327L139.5 328L139.82 329L140 329.5L140.18 330L140.5 331L140.82 332L141 332.5L141.18 333L141.5 334L141.81 335L142 335.53L142.16 336L142.41 337L142.59 338L142.84 339L143 339.47L143.19 340L143.5 341L143.82 342L144 342.5L144.18 343L144.5 344L144.82 345L145 345.5L145.18 346L145.5 347L145.81 348L146 348.53L146.16 349L146.41 350L146.59 351L146.84 352L147 352.51L147.16 353L147.38 354L147.47 355L147.49 356L147.47 357L147.38 358L147.14 359L147 359.33L146.71 360L146.17 361L146 361.23L145.39 362L145 362.39L144.23 363L144 363.17L143 363.71L142.33 364L142 364.14L141 364.38L140 364.47L139 364.47L138 364.38L137 364.16L136.54 364L136 363.81L135 363.5L134 363.19L133.47 363L133 362.84L132 362.59L131 362.41L130 362.16L129.53 362L129 361.81L128 361.5L127 361.16L126.62 361L126 360.73L125 360.27L124.38 360L124 359.84L123 359.5L122 359.18L121.5 359L121 358.82L120 358.5L119 358.18L118.5 358L118 357.82L117 357.5L116 357.16L115.62 357L115 356.73L114 356.27L113.38 356L113 355.83L112 355.5L111 355.16L110.62 355L110 354.72L109 354.26L108.5 354L108 353.74L107 353.26L106.5 353L106 352.74L105 352.26L104.5 352L104 351.74L103 351.26L102.5 351L102 350.74L101 350.26L100.5 350L100 349.74L99 349.26L98.51 349L98 348.73L97 348.18L96.73 348L96 347.5L95.27 347L95 346.82L94 346.27L93.49 346L93 345.74L92 345.26L91.51 345L91 344.73L90 344.18L89.73 344L89 343.5L88.28 343L88 342.81L87 342.19L86.72 342L86 341.5L85.28 341L85 340.81L84 340.19L83.72 340L83 339.5L82.28 339L82 338.81L81 338.19L80.72 338L80 337.5L79.28 337L79 336.81L78 336.19L77.72 336L77 335.5L76.28 335L76 334.81L75 334.18L74.75 334L74 333.43L73.5 333L73 332.57L72.25 332L72 331.82L71 331.18L70.75 331L70 330.42L69.53 330L69 329.49L68.5 329L68 328.51L67.47 328L67 327.58L66.25 327L66 326.82L65 326.18L64.75 326L64 325.42L63.53 325L63 324.49L62.5 324L62 323.5L61.5 323L61 322.5L60.5 322L60 321.51L59.47 321L59 320.58L58.25 320L58 319.82L57 319.18L56.75 319L56 318.42L55.53 318L55 317.49L54.5 317L54 316.5L53.5 316L53 315.5L52.51 315L52 314.47L51.58 314L51 313.25L50.82 313L50.18 312L50 311.75L49.42 311L49 310.53L48.49 310L48 309.5L47.5 309L47 308.5L46.51 308L46 307.47L45.58 307L45 306.25L44.82 306L44.18 305L44 304.75L43.42 304L43 303.53L42.5 303L42 302.47L41.58 302L41 301.25L40.82 301L40.18 300L40 299.75L39.43 299L39 298.5L38.57 298L38 297.25L37.82 297L37.18 296L37 295.75L36.43 295L36 294.5L35.57 294L35 293.25L34.82 293L34.19 292L34 291.72L33.5 291L33 290.28L32.81 290L32.19 289L32 288.72L31.5 288L31 287.28L30.81 287L30.19 286L30 285.72L29.5 285L29 284.27L28.82 284L28.27 283L28 282.5L27.73 282L27.18 281L27 280.73L26.5 280L26 279.27L25.82 279L25.27 278L25 277.49L24.74 277L24.26 276L24 275.51L23.73 275L23.18 274L23 273.73L22.5 273L22 272.27L21.82 272L21.27 271L21 270.49L20.74 270L20.26 269L20 268.5L19.74 268L19.26 267L19 266.5L18.74 266L18.26 265L18 264.5L17.74 264L17.26 263L17 262.5L16.74 262L16.28 261L16 260.38L15.84 260L15.5 259L15.16 258L15 257.62L14.72 257L14.26 256L14 255.5L13.74 255L13.28 254L13 253.38L12.84 253L12.5 252L12.18 251L12 250.5L11.82 250L11.5 249L11.18 248L11 247.5L10.82 247L10.5 246L10.16 245L10 244.62L9.73 244L9.27 243L9 242.38L8.84 242L8.5 241L8.18 240L8 239.5L7.82 239L7.5 238L7.19 237L7 236.46L6.84 236L6.62 235L6.53 234L6.53 233L6.62 232L6.86 231L7 230.67L7.29 230L7.83 229L8 228.76L8.58 228L9 227.53L9.51 227L10 226.5L10.5 226L11 225.51L11.53 225L12 224.58L12.75 224L13 223.82L14 223.19L14.28 223L15 222.5L15.72 222L16 221.81L17 221.19L17.28 221L18 220.5L18.72 220L19 219.81L20 219.18L20.25 219L21 218.43L21.5 218L22 217.57L22.75 217L23 216.82L24 216.18L24.25 216L25 215.43L25.5 215L26 214.57L26.75 214L27 213.82L28 213.18L28.25 213L29 212.43L29.5 212L30 211.57L30.75 211L31 210.82L32 210.18L32.25 210L33 209.43L33.5 209L34 208.57L34.75 208L35 207.82L36 207.19L36.28 207L37 206.5L37.72 206L38 205.81L39 205.18L39.25 205L40 204.43L40.5 204L41 203.57L41.75 203L42 202.82L43 202.19L43.28 202L44 201.5L44.72 201L45 200.81L46 200.18L46.25 200L47 199.43L47.5 199L48 198.57L48.75 198L49 197.82L50 197.18L50.25 197L51 196.43L51.5 196L52 195.57L52.75 195L53 194.82L54 194.19L54.28 194L55 193.5L55.72 193L56 192.81L57 192.18L57.25 192L58 191.43L58.5 191L59 190.57L59.75 190L60 189.82L61 189.19L61.28 189L62 188.5L62.72 188L63 187.81L64 187.18L64.25 187L65 186.43L65.5 186L66 185.57L66.75 185L67 184.82L68 184.18L68.25 184L69 183.43L69.5 183L70 182.57L70.75 182L71 181.82L72 181.18L72.25 181L73 180.43L73.5 180L74 179.57L74.75 179L75 178.82L76 178.19L76.28 178L77 177.5L77.73 177L78 176.82L79 176.27L79.51 176L80 175.75L81 175.28Z"/>
  <path id="color-6" fill="#303743" fill-rule="evenodd" d="M425.57 114L426 113.67L427 113.51L428 113.5L429 113.5L430 113.5L431 113.5L432 113.5L433 113.5L434 113.5L435 113.5L436 113.5L437 113.5L438 113.5L439 113.5L440 113.5L441 113.5L442 113.5L443 113.5L444 113.5L445 113.5L446 113.5L447 113.5L448 113.5L449 113.5L450 113.5L451 113.5L452 113.5L453 113.5L454 113.5L455 113.5L456 113.5L457 113.5L458 113.5L459 113.5L460 113.5L461 113.5L462 113.5L463 113.5L464 113.5L465 113.5L466 113.5L467 113.5L468 113.5L469 113.5L470 113.5L471 113.5L472 113.5L473 113.5L474 113.5L475 113.5L476 113.5L477 113.5L478 113.5L479 113.5L480 113.5L481 113.5L482 113.5L483 113.5L484 113.5L485 113.5L486 113.51L487 113.67L487.5 114L488 114.33L489 114.49L490 114.5L491 114.5L492 114.51L493 114.67L493.5 115L494 115.33L495 115.5L496 115.67L496.5 116L497 116.33L498 116.5L499 116.67L499.5 117L500 117.34L501 117.66L501.5 118L502 118.34L503 118.66L503.5 119L504 119.34L505 119.66L505.5 120L506 120.34L507 120.67L507.44 121L508 121.5L508.56 122L509 122.33L510 122.67L510.44 123L511 123.5L511.5 124L512 124.5L512.5 125L513 125.5L513.5 126L514 126.5L514.5 127L515 127.5L515.5 128L516 128.5L516.5 129L517 129.5L517.5 130L518 130.5L518.5 131L519 131.56L519.33 132L519.67 133L520 133.44L520.5 134L521 134.56L521.33 135L521.66 136L522 136.5L522.34 137L522.66 138L523 138.5L523.34 139L523.66 140L524 140.5L524.34 141L524.66 142L525 142.5L525.33 143L525.5 144L525.67 145L526 145.5L526.33 146L526.5 147L526.67 148L527 148.5L527.33 149L527.49 150L527.5 151L527.51 152L527.67 153L528 153.5L528.33 154L528.49 155L528.5 156L528.5 157L528.5 158L528.5 159L528.5 160L528.5 161L528.5 162L528.5 163L528.5 164L528.5 165L528.5 166L528.5 167L528.49 168L528.33 169L528 169.5L527.67 170L527.51 171L527.5 172L527.5 173L527.49 174L527.33 175L527 175.5L526.67 176L526.5 177L526.33 178L526 178.5L525.67 179L525.5 180L525.33 181L525 181.5L524.66 182L524.34 183L524 183.5L523.66 184L523.34 185L523 185.5L522.66 186L522.34 187L522 187.5L521.66 188L521.33 189L521 189.44L520.5 190L520 190.56L519.67 191L519.33 192L519 192.44L518.5 193L518 193.5L517.5 194L517 194.5L516.5 195L516 195.5L515.5 196L515 196.5L514.5 197L514 197.5L513.5 198L513 198.5L512.5 199L512 199.5L511.5 200L511 200.5L510.44 201L510 201.33L509 201.67L508.56 202L508 202.5L507.44 203L507 203.33L506 203.66L505.5 204L505 204.34L504 204.66L503.5 205L503 205.34L502 205.66L501.5 206L501 206.33L500 206.5L499 206.67L498.5 207L498 207.34L497 207.66L496.5 208L496 208.33L495 208.49L494 208.51L493 208.67L492.5 209L492 209.33L491 209.49L490 209.51L489 209.67L488.5 210L488 210.33L487 210.49L486 210.5L485 210.5L484 210.5L483 210.5L482 210.5L481 210.5L480 210.5L479 210.5L478 210.5L477 210.5L476 210.5L475 210.5L474 210.5L473 210.5L472 210.5L471 210.5L470 210.5L469 210.5L468 210.5L467 210.5L466 210.5L465 210.5L464 210.5L463 210.5L462 210.5L461 210.5L460 210.5L459 210.5L458 210.5L457 210.5L456 210.5L455 210.5L454 210.5L453 210.5L452 210.5L451 210.51L450 210.67L449.57 211L449 211.57L448.67 212L448.51 213L448.5 214L448.5 215L448.5 216L448.5 217L448.5 218L448.5 219L448.5 220L448.5 221L448.5 222L448.5 223L448.5 224L448.5 225L448.5 226L448.5 227L448.5 228L448.5 229L448.5 230L448.5 231L448.5 232L448.5 233L448.5 234L448.5 235L448.5 236L448.5 237L448.5 238L448.5 239L448.5 240L448.5 241L448.5 242L448.5 243L448.5 244L448.5 245L448.5 246L448.5 247L448.5 248L448.5 249L448.5 250L448.5 251L448.5 252L448.5 253L448.5 254L448.5 255L448.5 256L448.5 257L448.5 258L448.5 259L448.5 260L448.5 261L448.5 262L448.5 263L448.5 264L448.5 265L448.5 266L448.5 267L448.49 268L448.26 269L448 269.26L447 269.49L446 269.5L445 269.5L444 269.5L443 269.5L442 269.5L441 269.5L440 269.5L439 269.5L438 269.5L437 269.5L436 269.5L435 269.5L434 269.5L433 269.5L432 269.5L431 269.5L430 269.5L429 269.5L428 269.5L427 269.49L426 269.33L425.57 269L425 268.43L424.67 268L424.51 267L424.5 266L424.5 265L424.5 264L424.5 263L424.5 262L424.5 261L424.5 260L424.5 259L424.5 258L424.5 257L424.5 256L424.5 255L424.5 254L424.5 253L424.5 252L424.5 251L424.5 250L424.5 249L424.5 248L424.5 247L424.5 246L424.5 245L424.5 244L424.5 243L424.5 242L424.5 241L424.5 240L424.5 239L424.5 238L424.5 237L424.5 236L424.5 235L424.5 234L424.5 233L424.5 232L424.5 231L424.5 230L424.5 229L424.5 228L424.5 227L424.5 226L424.5 225L424.5 224L424.5 223L424.5 222L424.5 221L424.5 220L424.5 219L424.5 218L424.5 217L424.5 216L424.5 215L424.5 214L424.5 213L424.5 212L424.5 211L424.5 210L424.5 209L424.5 208L424.5 207L424.5 206L424.5 205L424.5 204L424.5 203L424.5 202L424.5 201L424.5 200L424.5 199L424.5 198L424.5 197L424.5 196L424.5 195L424.5 194L424.5 193L424.5 192L424.5 191L424.5 190L424.5 189L424.5 188L424.5 187L424.5 186L424.5 185L424.5 184L424.5 183L424.5 182L424.5 181L424.5 180L424.5 179L424.5 178L424.5 177L424.5 176L424.5 175L424.5 174L424.5 173L424.5 172L424.5 171L424.5 170L424.5 169L424.5 168L424.5 167L424.5 166L424.5 165L424.5 164L424.5 163L424.5 162L424.5 161L424.5 160L424.5 159L424.5 158L424.5 157L424.5 156L424.5 155L424.5 154L424.5 153L424.5 152L424.5 151L424.5 150L424.5 149L424.5 148L424.5 147L424.5 146L424.5 145L424.5 144L424.5 143L424.5 142L424.5 141L424.5 140L424.5 139L424.5 138L424.5 137L424.5 136L424.5 135L424.5 134L424.5 133L424.5 132L424.5 131L424.5 130L424.5 129L424.5 128L424.5 127L424.5 126L424.5 125L424.5 124L424.5 123L424.5 122L424.5 121L424.5 120L424.5 119L424.5 118L424.5 117L424.51 116L424.67 115L425 114.57ZM554.5 118L555 117.67L556 117.51L557 117.5L558 117.51L559 117.67L559.5 118L560 118.33L561 118.5L562 118.67L562.5 119L563 119.34L564 119.66L564.5 120L565 120.34L566 120.67L566.44 121L567 121.5L567.5 122L568 122.56L568.33 123L568.67 124L569 124.44L569.5 125L570 125.56L570.33 126L570.5 127L570.67 128L571 128.5L571.33 129L571.49 130L571.5 131L571.5 132L571.5 133L571.49 134L571.33 135L571 135.5L570.67 136L570.5 137L570.33 138L570 138.44L569.5 139L569 139.56L568.67 140L568.33 141L568 141.44L567.5 142L567 142.5L566.44 143L566 143.33L565 143.66L564.5 144L564 144.34L563 144.66L562.5 145L562 145.34L561 145.66L560.5 146L560 146.33L559 146.49L558 146.5L557 146.5L556 146.5L555 146.49L554 146.33L553.5 146L553 145.67L552 145.5L551 145.33L550.5 145L550 144.66L549 144.33L548.56 144L548 143.5L547.5 143L547 142.5L546.5 142L546 141.5L545.5 141L545 140.44L544.67 140L544.34 139L544 138.5L543.66 138L543.34 137L543 136.5L542.67 136L542.51 135L542.5 134L542.5 133L542.5 132L542.5 131L542.5 130L542.51 129L542.67 128L543 127.5L543.34 127L543.66 126L544 125.5L544.34 125L544.67 124L545 123.56L545.5 123L546 122.5L546.5 122L547 121.5L547.5 121L548 120.5L548.56 120L549 119.67L550 119.34L550.5 119L551 118.67L552 118.51L553 118.49L554 118.33ZM450 135.67L449.57 136L449 136.57L448.67 137L448.51 138L448.5 139L448.5 140L448.5 141L448.5 142L448.5 143L448.5 144L448.5 145L448.5 146L448.5 147L448.5 148L448.5 149L448.5 150L448.5 151L448.5 152L448.5 153L448.5 154L448.5 155L448.5 156L448.5 157L448.5 158L448.5 159L448.5 160L448.5 161L448.5 162L448.5 163L448.5 164L448.5 165L448.5 166L448.5 167L448.5 168L448.5 169L448.5 170L448.5 171L448.5 172L448.5 173L448.5 174L448.5 175L448.5 176L448.5 177L448.5 178L448.5 179L448.5 180L448.5 181L448.5 182L448.5 183L448.5 184L448.5 185L448.51 186L448.67 187L449 187.43L449.57 188L450 188.33L451 188.49L452 188.5L453 188.5L454 188.5L455 188.5L456 188.5L457 188.5L458 188.5L459 188.5L460 188.5L461 188.5L462 188.5L463 188.5L464 188.5L465 188.5L466 188.5L467 188.5L468 188.5L469 188.5L470 188.5L471 188.5L472 188.5L473 188.5L474 188.5L475 188.5L476 188.5L477 188.5L478 188.5L479 188.5L480 188.5L481 188.49L482 188.33L482.5 188L483 187.67L484 187.51L485 187.49L486 187.33L486.5 187L487 186.67L488 186.5L489 186.33L489.5 186L490 185.66L491 185.34L491.5 185L492 184.66L493 184.33L493.44 184L494 183.5L494.5 183L495 182.5L495.56 182L496 181.67L497 181.33L497.44 181L498 180.44L498.33 180L498.67 179L499 178.56L499.5 178L500 177.44L500.33 177L500.66 176L501 175.5L501.34 175L501.66 174L502 173.5L502.33 173L502.5 172L502.67 171L503 170.5L503.33 170L503.49 169L503.51 168L503.67 167L504 166.5L504.33 166L504.49 165L504.5 164L504.5 163L504.5 162L504.5 161L504.5 160L504.5 159L504.5 158L504.49 157L504.33 156L504 155.5L503.67 155L503.5 154L503.33 153L503 152.5L502.67 152L502.5 151L502.33 150L502 149.5L501.66 149L501.33 148L501 147.56L500.5 147L500 146.44L499.67 146L499.33 145L499 144.56L498.5 144L498 143.5L497.5 143L497 142.5L496.5 142L496 141.5L495.44 141L495 140.67L494 140.33L493.56 140L493 139.5L492.44 139L492 138.67L491 138.34L490.5 138L490 137.67L489 137.5L488 137.33L487.5 137L487 136.67L486 136.51L485 136.49L484 136.33L483.5 136L483 135.67L482 135.51L481 135.5L480 135.5L479 135.5L478 135.5L477 135.5L476 135.5L475 135.5L474 135.5L473 135.5L472 135.5L471 135.5L470 135.5L469 135.5L468 135.5L467 135.5L466 135.5L465 135.5L464 135.5L463 135.5L462 135.5L461 135.5L460 135.5L459 135.5L458 135.5L457 135.5L456 135.5L455 135.5L454 135.5L453 135.5L452 135.5L451 135.51ZM744.5 160L745 159.67L746 159.51L747 159.5L748 159.5L749 159.51L750 159.67L750.5 160L751 160.33L752 160.49L753 160.5L754 160.5L755 160.5L756 160.5L757 160.51L758 160.67L758.5 161L759 161.33L760 161.49L761 161.51L762 161.67L762.5 162L763 162.33L764 162.5L765 162.67L765.5 163L766 163.33L767 163.5L768 163.67L768.5 164L769 164.34L770 164.66L770.5 165L771 165.34L772 165.66L772.5 166L773 166.34L774 166.67L774.44 167L775 167.5L775.5 168L776 168.5L776.56 169L777 169.33L778 169.67L778.44 170L779 170.5L779.5 171L780 171.5L780.5 172L781 172.5L781.5 173L782 173.5L782.57 174L783 174.32L784 174.25L784.25 174L784.49 173L784.5 172L784.5 171L784.5 170L784.5 169L784.5 168L784.5 167L784.5 166L784.5 165L784.51 164L784.74 163L785 162.74L786 162.51L787 162.5L788 162.5L789 162.5L790 162.5L791 162.5L792 162.5L793 162.5L794 162.5L795 162.5L796 162.5L797 162.5L798 162.5L799 162.5L800 162.5L801 162.5L802 162.5L803 162.5L804 162.5L805 162.51L806 162.67L806.43 163L807 163.57L807.33 164L807.49 165L807.33 166L807 166.5L806.67 167L806.51 168L806.5 169L806.5 170L806.5 171L806.51 172L806.67 173L807 173.5L807.33 174L807.49 175L807.5 176L807.5 177L807.5 178L807.5 179L807.5 180L807.5 181L807.5 182L807.5 183L807.5 184L807.5 185L807.5 186L807.5 187L807.5 188L807.5 189L807.5 190L807.5 191L807.5 192L807.5 193L807.5 194L807.5 195L807.5 196L807.5 197L807.5 198L807.5 199L807.5 200L807.5 201L807.49 202L807.33 203L807 203.5L806.67 204L806.51 205L806.5 206L806.5 207L806.5 208L806.5 209L806.5 210L806.5 211L806.51 212L806.67 213L807 213.5L807.33 214L807.49 215L807.5 216L807.5 217L807.5 218L807.5 219L807.5 220L807.5 221L807.5 222L807.49 223L807.33 224L807 224.5L806.67 225L806.51 226L806.5 227L806.5 228L806.51 229L806.67 230L807 230.5L807.33 231L807.49 232L807.5 233L807.5 234L807.5 235L807.5 236L807.5 237L807.5 238L807.5 239L807.5 240L807.5 241L807.5 242L807.5 243L807.5 244L807.5 245L807.5 246L807.5 247L807.5 248L807.5 249L807.5 250L807.5 251L807.5 252L807.5 253L807.5 254L807.5 255L807.5 256L807.5 257L807.5 258L807.5 259L807.5 260L807.5 261L807.5 262L807.5 263L807.49 264L807.33 265L807 265.5L806.67 266L806.51 267L806.49 268L806.26 269L806 269.26L805 269.49L804 269.5L803 269.5L802 269.5L801 269.5L800 269.5L799 269.5L798 269.5L797 269.5L796 269.5L795 269.5L794 269.5L793 269.5L792 269.5L791 269.5L790 269.5L789 269.5L788 269.5L787 269.5L786 269.49L785 269.26L784.74 269L784.51 268L784.5 267L784.5 266L784.5 265L784.5 264L784.5 263L784.5 262L784.5 261L784.5 260L784.49 259L784.25 258L784 257.75L783 257.68L782.57 258L782 258.5L781.5 259L781 259.5L780.5 260L780 260.5L779.5 261L779 261.5L778.5 262L778 262.5L777.5 263L777 263.5L776.44 264L776 264.33L775 264.66L774.5 265L774 265.34L773 265.67L772.56 266L772 266.5L771.44 267L771 267.33L770 267.5L769 267.67L768.5 268L768 268.34L767 268.66L766.5 269L766 269.33L765 269.5L764 269.67L763.5 270L763 270.33L762 270.49L761 270.51L760 270.67L759.5 271L759 271.33L758 271.49L757 271.5L756 271.5L755 271.5L754 271.5L753 271.51L752 271.67L751.5 272L751 272.33L750 272.49L749 272.5L748 272.5L747 272.5L746 272.5L745 272.49L744 272.33L743.5 272L743 271.67L742 271.51L741 271.5L740 271.5L739 271.5L738 271.49L737 271.33L736.5 271L736 270.67L735 270.51L734 270.49L733 270.33L732.5 270L732 269.67L731 269.5L730 269.33L729.5 269L729 268.67L728 268.5L727 268.33L726.5 268L726 267.66L725 267.34L724.5 267L724 266.66L723 266.34L722.5 266L722 265.66L721 265.33L720.56 265L720 264.5L719.44 264L719 263.67L718 263.33L717.56 263L717 262.5L716.44 262L716 261.67L715 261.33L714.56 261L714 260.5L713.5 260L713 259.5L712.5 259L712 258.5L711.5 258L711 257.5L710.5 257L710 256.5L709.5 256L709 255.5L708.5 255L708 254.5L707.5 254L707 253.44L706.67 253L706.33 252L706 251.56L705.5 251L705 250.5L704.5 250L704 249.44L703.67 249L703.33 248L703 247.56L702.5 247L702 246.44L701.67 246L701.34 245L701 244.5L700.66 244L700.34 243L700 242.5L699.67 242L699.5 241L699.33 240L699 239.5L698.66 239L698.34 238L698 237.5L697.67 237L697.5 236L697.33 235L697 234.5L696.67 234L696.51 233L696.49 232L696.33 231L696 230.5L695.67 230L695.51 229L695.5 228L695.49 227L695.33 226L695 225.5L694.67 225L694.51 224L694.5 223L694.5 222L694.5 221L694.5 220L694.5 219L694.5 218L694.5 217L694.5 216L694.5 215L694.5 214L694.5 213L694.5 212L694.5 211L694.5 210L694.5 209L694.5 208L694.51 207L694.67 206L695 205.5L695.33 205L695.49 204L695.5 203L695.51 202L695.67 201L696 200.5L696.33 200L696.49 199L696.51 198L696.67 197L697 196.5L697.33 196L697.5 195L697.67 194L698 193.5L698.34 193L698.66 192L699 191.5L699.34 191L699.66 190L700 189.5L700.34 189L700.66 188L701 187.5L701.34 187L701.67 186L702 185.56L702.5 185L703 184.44L703.33 184L703.67 183L704 182.56L704.5 182L705 181.44L705.33 181L705.67 180L706 179.56L706.5 179L707 178.5L707.5 178L708 177.5L708.5 177L709 176.5L709.5 176L710 175.5L710.5 175L711 174.5L711.5 174L712 173.5L712.5 173L713 172.5L713.5 172L714 171.5L714.56 171L715 170.67L716 170.33L716.44 170L717 169.5L717.5 169L718 168.5L718.56 168L719 167.67L720 167.34L720.5 167L721 166.66L722 166.34L722.5 166L723 165.66L724 165.34L724.5 165L725 164.66L726 164.34L726.5 164L727 163.67L728 163.5L729 163.33L729.5 163L730 162.67L731 162.5L732 162.33L732.5 162L733 161.67L734 161.51L735 161.49L736 161.33L736.5 161L737 160.67L738 160.51L739 160.5L740 160.5L741 160.5L742 160.5L743 160.49L744 160.33ZM964.5 160L965 159.67L966 159.51L967 159.5L968 159.51L969 159.67L969.5 160L970 160.33L971 160.49L972 160.5L973 160.5L974 160.5L975 160.5L976 160.5L977 160.51L978 160.67L978.5 161L979 161.33L980 161.49L981 161.51L982 161.67L982.5 162L983 162.33L984 162.5L985 162.67L985.5 163L986 163.33L987 163.5L988 163.67L988.5 164L989 164.34L990 164.66L990.5 165L991 165.34L992 165.66L992.5 166L993 166.34L994 166.67L994.44 167L995 167.5L995.5 168L996 168.5L996.56 169L997 169.33L998 169.67L998.44 170L999 170.5L999.5 171L1000 171.5L1000.5 172L1001 172.5L1001.5 173L1002 173.5L1002.57 174L1003 174.32L1004 174.25L1004.25 174L1004.49 173L1004.5 172L1004.5 171L1004.5 170L1004.5 169L1004.5 168L1004.5 167L1004.5 166L1004.5 165L1004.51 164L1004.74 163L1005 162.74L1006 162.51L1007 162.5L1008 162.5L1009 162.5L1010 162.5L1011 162.5L1012 162.5L1013 162.5L1014 162.5L1015 162.5L1016 162.5L1017 162.5L1018 162.5L1019 162.5L1020 162.5L1021 162.5L1022 162.5L1023 162.5L1024 162.5L1025 162.51L1026 162.67L1026.43 163L1027 163.57L1027.33 164L1027.49 165L1027.5 166L1027.5 167L1027.5 168L1027.5 169L1027.5 170L1027.5 171L1027.5 172L1027.5 173L1027.5 174L1027.5 175L1027.5 176L1027.5 177L1027.5 178L1027.5 179L1027.5 180L1027.5 181L1027.5 182L1027.5 183L1027.5 184L1027.5 185L1027.5 186L1027.5 187L1027.5 188L1027.5 189L1027.5 190L1027.5 191L1027.5 192L1027.5 193L1027.5 194L1027.5 195L1027.5 196L1027.5 197L1027.5 198L1027.5 199L1027.5 200L1027.5 201L1027.5 202L1027.5 203L1027.5 204L1027.5 205L1027.5 206L1027.5 207L1027.5 208L1027.5 209L1027.5 210L1027.5 211L1027.5 212L1027.5 213L1027.5 214L1027.5 215L1027.5 216L1027.5 217L1027.5 218L1027.5 219L1027.5 220L1027.5 221L1027.5 222L1027.5 223L1027.5 224L1027.5 225L1027.5 226L1027.5 227L1027.5 228L1027.5 229L1027.5 230L1027.5 231L1027.5 232L1027.5 233L1027.5 234L1027.5 235L1027.5 236L1027.5 237L1027.5 238L1027.5 239L1027.5 240L1027.5 241L1027.5 242L1027.5 243L1027.5 244L1027.5 245L1027.5 246L1027.5 247L1027.5 248L1027.5 249L1027.5 250L1027.5 251L1027.5 252L1027.5 253L1027.5 254L1027.5 255L1027.5 256L1027.5 257L1027.5 258L1027.5 259L1027.5 260L1027.5 261L1027.5 262L1027.5 263L1027.5 264L1027.5 265L1027.5 266L1027.49 267L1027.33 268L1027 268.43L1026.43 269L1026 269.33L1025 269.49L1024 269.5L1023 269.5L1022 269.5L1021 269.5L1020 269.5L1019 269.5L1018 269.5L1017 269.5L1016 269.5L1015 269.5L1014 269.5L1013 269.5L1012 269.5L1011 269.5L1010 269.5L1009 269.5L1008 269.5L1007 269.5L1006 269.49L1005 269.26L1004.74 269L1004.51 268L1004.5 267L1004.5 266L1004.5 265L1004.5 264L1004.5 263L1004.5 262L1004.5 261L1004.5 260L1004.49 259L1004.25 258L1004 257.75L1003 257.68L1002.57 258L1002 258.5L1001.5 259L1001 259.5L1000.5 260L1000 260.5L999.5 261L999 261.5L998.5 262L998 262.5L997.5 263L997 263.5L996.44 264L996 264.33L995 264.67L994.56 265L994 265.5L993.44 266L993 266.33L992 266.66L991.5 267L991 267.34L990 267.66L989.5 268L989 268.33L988 268.5L987 268.67L986.5 269L986 269.33L985 269.5L984 269.67L983.5 270L983 270.33L982 270.49L981 270.51L980 270.67L979.5 271L979 271.33L978 271.49L977 271.5L976 271.5L975 271.5L974 271.51L973 271.67L972.5 272L972 272.33L971 272.49L970 272.5L969 272.5L968 272.5L967 272.5L966 272.49L965 272.33L964.5 272L964 271.67L963 271.51L962 271.5L961 271.5L960 271.5L959 271.49L958 271.33L957.5 271L957 270.67L956 270.51L955 270.5L954 270.49L953 270.33L952.5 270L952 269.67L951 269.5L950 269.33L949.5 269L949 268.66L948 268.34L947.5 268L947 267.67L946 267.5L945 267.33L944.5 267L944 266.66L943 266.33L942.56 266L942 265.5L941.44 265L941 264.67L940 264.34L939.5 264L939 263.66L938 263.33L937.56 263L937 262.5L936.5 262L936 261.5L935.44 261L935 260.67L934 260.33L933.56 260L933 259.5L932.5 259L932 258.5L931.5 258L931 257.5L930.5 257L930 256.5L929.5 256L929 255.5L928.5 255L928 254.44L927.67 254L927.33 253L927 252.56L926.5 252L926 251.5L925.5 251L925 250.44L924.67 250L924.33 249L924 248.56L923.5 248L923 247.44L922.67 247L922.34 246L922 245.5L921.66 245L921.34 244L921 243.5L920.66 243L920.34 242L920 241.5L919.66 241L919.34 240L919 239.5L918.67 239L918.5 238L918.33 237L918 236.5L917.67 236L917.5 235L917.33 234L917 233.5L916.67 233L916.51 232L916.49 231L916.33 230L916 229.5L915.67 229L915.51 228L915.5 227L915.49 226L915.33 225L915 224.5L914.67 224L914.51 223L914.5 222L914.5 221L914.5 220L914.5 219L914.5 218L914.5 217L914.5 216L914.5 215L914.5 214L914.5 213L914.5 212L914.5 211L914.5 210L914.51 209L914.67 208L915 207.5L915.33 207L915.49 206L915.5 205L915.5 204L915.51 203L915.67 202L916 201.5L916.33 201L916.49 200L916.51 199L916.67 198L917 197.5L917.33 197L917.5 196L917.67 195L918 194.5L918.34 194L918.66 193L919 192.5L919.33 192L919.5 191L919.67 190L920 189.5L920.34 189L920.67 188L921 187.56L921.5 187L922 186.44L922.33 186L922.67 185L923 184.56L923.5 184L924 183.44L924.33 183L924.67 182L925 181.56L925.5 181L926 180.44L926.33 180L926.67 179L927 178.56L927.5 178L928 177.5L928.5 177L929 176.5L929.5 176L930 175.5L930.5 175L931 174.5L931.5 174L932 173.5L932.5 173L933 172.5L933.56 172L934 171.67L935 171.33L935.44 171L936 170.5L936.5 170L937 169.5L937.56 169L938 168.67L939 168.33L939.44 168L940 167.5L940.56 167L941 166.67L942 166.34L942.5 166L943 165.66L944 165.34L944.5 165L945 164.66L946 164.34L946.5 164L947 163.67L948 163.5L949 163.33L949.5 163L950 162.67L951 162.5L952 162.33L952.5 162L953 161.67L954 161.51L955 161.49L956 161.33L956.5 161L957 160.67L958 160.51L959 160.5L960 160.5L961 160.5L962 160.5L963 160.49L964 160.33ZM631.5 161L632 160.67L633 160.51L634 160.5L635 160.5L636 160.5L637 160.5L638 160.5L639 160.5L640 160.5L641 160.5L642 160.5L643 160.5L644 160.5L645 160.5L646 160.5L647 160.5L648 160.5L649 160.5L650 160.5L651 160.5L652 160.51L653 160.67L653.5 161L654 161.33L655 161.49L656 161.5L657 161.51L658 161.67L658.5 162L659 162.33L660 162.5L661 162.67L661.5 163L662 163.33L663 163.5L664 163.67L664.5 164L665 164.34L666 164.66L666.5 165L667 165.34L668 165.66L668.5 166L669 166.34L670 166.66L670.5 167L671 167.34L672 167.67L672.44 168L673 168.5L673.56 169L674 169.33L675 169.67L675.44 170L676 170.5L676.56 171L677 171.33L678 171.67L678.44 172L679 172.5L679.5 173L680 173.5L680.5 174L681 174.5L681.5 175L682 175.5L682.5 176L683 176.5L683.5 177L684 177.56L684.33 178L684.49 179L684.33 180L684 180.44L683.5 181L683 181.5L682.5 182L682 182.5L681.5 183L681 183.5L680.5 184L680 184.5L679.5 185L679 185.5L678.5 186L678 186.5L677.5 187L677 187.5L676.5 188L676 188.5L675.5 189L675 189.5L674.44 190L674 190.33L673 190.67L672.56 191L672 191.5L671.44 192L671 192.33L670 192.49L669 192.33L668.56 192L668 191.5L667.5 191L667 190.5L666.44 190L666 189.67L665 189.33L664.56 189L664 188.5L663.5 188L663 187.5L662.44 187L662 186.67L661 186.34L660.5 186L660 185.66L659 185.34L658.5 185L658 184.66L657 184.34L656.5 184L656 183.67L655 183.5L654 183.33L653.5 183L653 182.67L652 182.5L651 182.33L650.5 182L650 181.67L649 181.51L648 181.5L647 181.5L646 181.5L645 181.5L644 181.5L643 181.5L642 181.5L641 181.5L640 181.5L639 181.51L638 181.67L637.5 182L637 182.33L636 182.49L635 182.5L634 182.51L633 182.67L632.5 183L632 183.33L631 183.5L630 183.67L629.5 184L629 184.34L628 184.66L627.5 185L627 185.34L626 185.67L625.56 186L625 186.5L624.5 187L624 187.5L623.44 188L623 188.33L622 188.67L621.56 189L621 189.5L620.5 190L620 190.5L619.5 191L619 191.56L618.67 192L618.33 193L618 193.44L617.5 194L617 194.5L616.5 195L616 195.56L615.67 196L615.34 197L615 197.5L614.66 198L614.34 199L614 199.5L613.67 200L613.5 201L613.33 202L613 202.5L612.67 203L612.5 204L612.33 205L612 205.5L611.67 206L611.51 207L611.5 208L611.49 209L611.33 210L611 210.5L610.67 211L610.51 212L610.5 213L610.5 214L610.5 215L610.5 216L610.5 217L610.5 218L610.5 219L610.5 220L610.51 221L610.67 222L611 222.5L611.33 223L611.49 224L611.51 225L611.67 226L612 226.5L612.33 227L612.5 228L612.67 229L613 229.5L613.33 230L613.5 231L613.67 232L614 232.5L614.34 233L614.66 234L615 234.5L615.34 235L615.67 236L616 236.44L616.5 237L617 237.56L617.33 238L617.67 239L618 239.44L618.5 240L619 240.5L619.5 241L620 241.5L620.5 242L621 242.5L621.56 243L622 243.33L623 243.67L623.44 244L624 244.5L624.5 245L625 245.5L625.56 246L626 246.33L627 246.66L627.5 247L628 247.34L629 247.66L629.5 248L630 248.33L631 248.5L632 248.67L632.5 249L633 249.33L634 249.49L635 249.51L636 249.67L636.5 250L637 250.33L638 250.49L639 250.5L640 250.5L641 250.5L642 250.5L643 250.5L644 250.5L645 250.5L646 250.5L647 250.5L648 250.49L649 250.33L649.5 250L650 249.67L651 249.51L652 249.49L653 249.33L653.5 249L654 248.67L655 248.5L656 248.33L656.5 248L657 247.66L658 247.34L658.5 247L659 246.66L660 246.34L660.5 246L661 245.66L662 245.33L662.44 245L663 244.5L663.5 244L664 243.5L664.5 243L665 242.5L665.56 242L666 241.67L667 241.33L667.44 241L668 240.44L668.34 240L668.73 239L669 238.74L670 238.52L671 238.67L671.44 239L672 239.5L672.5 240L673 240.5L673.5 241L674 241.5L674.5 242L675 242.5L675.56 243L676 243.33L677 243.67L677.44 244L678 244.5L678.5 245L679 245.5L679.5 246L680 246.5L680.5 247L681 247.5L681.5 248L682 248.5L682.5 249L683 249.5L683.56 250L684 250.34L685 250.73L685.26 251L685.48 252L685.33 253L685 253.44L684.5 254L684 254.5L683.5 255L683 255.5L682.5 256L682 256.5L681.5 257L681 257.5L680.5 258L680 258.5L679.5 259L679 259.5L678.5 260L678 260.5L677.44 261L677 261.33L676 261.67L675.56 262L675 262.5L674.44 263L674 263.33L673 263.67L672.56 264L672 264.5L671.44 265L671 265.33L670 265.66L669.5 266L669 266.34L668 266.66L667.5 267L667 267.34L666 267.66L665.5 268L665 268.33L664 268.5L663 268.67L662.5 269L662 269.33L661 269.5L660 269.67L659.5 270L659 270.33L658 270.49L657 270.5L656 270.51L655 270.67L654.5 271L654 271.33L653 271.49L652 271.5L651 271.5L650 271.5L649 271.5L648 271.51L647 271.67L646.5 272L646 272.33L645 272.49L644 272.5L643 272.5L642 272.5L641 272.5L640 272.49L639 272.33L638.5 272L638 271.67L637 271.51L636 271.5L635 271.5L634 271.5L633 271.49L632 271.33L631.5 271L631 270.67L630 270.51L629 270.5L628 270.49L627 270.33L626.5 270L626 269.67L625 269.5L624 269.33L623.5 269L623 268.66L622 268.34L621.5 268L621 267.67L620 267.5L619 267.33L618.5 267L618 266.66L617 266.34L616.5 266L616 265.66L615 265.33L614.56 265L614 264.5L613.44 264L613 263.67L612 263.33L611.56 263L611 262.5L610.44 262L610 261.67L609 261.33L608.56 261L608 260.5L607.5 260L607 259.5L606.5 259L606 258.5L605.44 258L605 257.67L604 257.33L603.56 257L603 256.44L602.67 256L602.33 255L602 254.56L601.5 254L601 253.5L600.5 253L600 252.5L599.5 252L599 251.5L598.5 251L598 250.44L597.67 250L597.33 249L597 248.56L596.5 248L596 247.44L595.67 247L595.33 246L595 245.56L594.5 245L594 244.44L593.67 244L593.34 243L593 242.5L592.66 242L592.34 241L592 240.5L591.67 240L591.5 239L591.33 238L591 237.5L590.67 237L590.5 236L590.33 235L590 234.5L589.67 234L589.5 233L589.33 232L589 231.5L588.67 231L588.51 230L588.49 229L588.33 228L588 227.5L587.67 227L587.51 226L587.5 225L587.5 224L587.5 223L587.5 222L587.5 221L587.5 220L587.5 219L587.5 218L587.5 217L587.5 216L587.5 215L587.5 214L587.5 213L587.5 212L587.5 211L587.5 210L587.5 209L587.5 208L587.51 207L587.67 206L588 205.5L588.33 205L588.49 204L588.5 203L588.51 202L588.67 201L589 200.5L589.33 200L589.5 199L589.67 198L590 197.5L590.33 197L590.5 196L590.67 195L591 194.5L591.34 194L591.66 193L592 192.5L592.33 192L592.5 191L592.67 190L593 189.56L593.5 189L594 188.44L594.33 188L594.66 187L595 186.5L595.34 186L595.67 185L596 184.56L596.5 184L597 183.44L597.33 183L597.67 182L598 181.56L598.5 181L599 180.5L599.5 180L600 179.5L600.5 179L601 178.5L601.5 178L602 177.5L602.5 177L603 176.5L603.5 176L604 175.5L604.5 175L605 174.5L605.5 174L606 173.5L606.5 173L607 172.5L607.5 172L608 171.5L608.56 171L609 170.67L610 170.33L610.44 170L611 169.5L611.56 169L612 168.67L613 168.33L613.44 168L614 167.5L614.56 167L615 166.67L616 166.34L616.5 166L617 165.66L618 165.34L618.5 165L619 164.67L620 164.5L621 164.33L621.5 164L622 163.66L623 163.34L623.5 163L624 162.67L625 162.51L626 162.49L627 162.33L627.5 162L628 161.67L629 161.51L630 161.49L631 161.33ZM853.5 161L854 160.67L855 160.51L856 160.5L857 160.5L858 160.5L859 160.5L860 160.5L861 160.5L862 160.5L863 160.5L864 160.5L865 160.5L866 160.5L867 160.5L868 160.5L869 160.5L870 160.5L871 160.5L872 160.51L873 160.67L873.5 161L874 161.33L875 161.49L876 161.5L877 161.51L878 161.67L878.5 162L879 162.33L880 162.5L881 162.67L881.5 163L882 163.33L883 163.5L884 163.67L884.5 164L885 164.34L886 164.66L886.5 165L887 165.34L888 165.67L888.44 166L889 166.5L889.56 167L890 167.33L891 167.67L891.44 168L892 168.5L892.56 169L893 169.33L894 169.67L894.44 170L895 170.5L895.5 171L896 171.5L896.5 172L897 172.5L897.5 173L898 173.56L898.33 174L898.49 175L898.33 176L898 176.44L897.5 177L897 177.5L896.5 178L896 178.5L895.5 179L895 179.5L894.5 180L894 180.5L893.5 181L893 181.5L892.5 182L892 182.5L891.5 183L891 183.5L890.5 184L890 184.5L889.5 185L889 185.5L888.5 186L888 186.5L887.5 187L887 187.5L886.44 188L886 188.33L885 188.49L884 188.33L883.56 188L883 187.5L882.5 187L882 186.5L881.5 186L881 185.5L880.44 185L880 184.67L879 184.33L878.56 184L878 183.5L877.44 183L877 182.67L876 182.34L875.5 182L875 181.67L874 181.5L873 181.33L872.5 181L872 180.67L871 180.51L870 180.49L869 180.33L868.5 180L868 179.67L867 179.51L866 179.5L865 179.5L864 179.5L863 179.5L862 179.5L861 179.51L860 179.67L859.5 180L859 180.33L858 180.5L857 180.67L856.5 181L856 181.34L855 181.67L854.56 182L854 182.5L853.5 183L853 183.5L852.5 184L852 184.5L851.5 185L851 185.56L850.67 186L850.34 187L850 187.5L849.67 188L849.51 189L849.5 190L849.5 191L849.5 192L849.51 193L849.67 194L850 194.5L850.34 195L850.67 196L851 196.44L851.5 197L852 197.5L852.5 198L853 198.5L853.5 199L854 199.5L854.56 200L855 200.33L856 200.67L856.44 201L857 201.5L857.56 202L858 202.33L859 202.5L860 202.67L860.5 203L861 203.34L862 203.66L862.5 204L863 204.33L864 204.5L865 204.67L865.5 205L866 205.34L867 205.66L867.5 206L868 206.33L869 206.5L870 206.67L870.5 207L871 207.33L872 207.5L873 207.67L873.5 208L874 208.34L875 208.66L875.5 209L876 209.33L877 209.5L878 209.67L878.5 210L879 210.34L880 210.66L880.5 211L881 211.33L882 211.5L883 211.67L883.5 212L884 212.34L885 212.66L885.5 213L886 213.34L887 213.67L887.44 214L888 214.5L888.56 215L889 215.33L890 215.67L890.44 216L891 216.5L891.56 217L892 217.33L893 217.67L893.44 218L894 218.5L894.5 219L895 219.5L895.5 220L896 220.5L896.5 221L897 221.5L897.5 222L898 222.56L898.33 223L898.66 224L899 224.5L899.34 225L899.66 226L900 226.5L900.34 227L900.66 228L901 228.5L901.34 229L901.66 230L902 230.5L902.33 231L902.49 232L902.5 233L902.51 234L902.67 235L903 235.5L903.33 236L903.49 237L903.5 238L903.5 239L903.5 240L903.5 241L903.5 242L903.5 243L903.49 244L903.33 245L903 245.5L902.67 246L902.51 247L902.49 248L902.33 249L902 249.5L901.67 250L901.5 251L901.33 252L901 252.5L900.66 253L900.34 254L900 254.5L899.66 255L899.33 256L899 256.44L898.5 257L898 257.5L897.5 258L897 258.56L896.67 259L896.33 260L896 260.44L895.5 261L895 261.5L894.5 262L894 262.5L893.44 263L893 263.33L892 263.67L891.56 264L891 264.5L890.5 265L890 265.5L889.44 266L889 266.33L888 266.66L887.5 267L887 267.34L886 267.66L885.5 268L885 268.33L884 268.5L883 268.67L882.5 269L882 269.33L881 269.5L880 269.67L879.5 270L879 270.33L878 270.49L877 270.51L876 270.67L875.5 271L875 271.33L874 271.49L873 271.5L872 271.5L871 271.5L870 271.51L869 271.67L868.5 272L868 272.33L867 272.49L866 272.5L865 272.5L864 272.5L863 272.5L862 272.5L861 272.49L860 272.33L859.5 272L859 271.67L858 271.51L857 271.5L856 271.5L855 271.5L854 271.5L853 271.49L852 271.33L851.5 271L851 270.67L850 270.51L849 270.49L848 270.33L847.5 270L847 269.67L846 269.5L845 269.33L844.5 269L844 268.67L843 268.5L842 268.33L841.5 268L841 267.66L840 267.34L839.5 267L839 266.66L838 266.34L837.5 266L837 265.66L836 265.33L835.56 265L835 264.5L834.44 264L834 263.67L833 263.33L832.56 263L832 262.5L831.5 262L831 261.5L830.44 261L830 260.67L829 260.33L828.56 260L828 259.5L827.5 259L827 258.5L826.5 258L826 257.5L825.5 257L825 256.5L824.5 256L824 255.5L823.5 255L823 254.43L822.68 254L822.68 253L823 252.57L823.5 252L824 251.5L824.56 251L825 250.67L826 250.33L826.44 250L827 249.5L827.5 249L828 248.5L828.5 248L829 247.5L829.5 247L830 246.5L830.5 246L831 245.5L831.5 245L832 244.5L832.5 244L833 243.5L833.5 243L834 242.5L834.5 242L835 241.5L835.5 241L836 240.5L836.57 240L837 239.68L838 239.68L838.43 240L839 240.5L839.5 241L840 241.5L840.5 242L841 242.5L841.5 243L842 243.5L842.5 244L843 244.5L843.56 245L844 245.33L845 245.67L845.44 246L846 246.5L846.5 247L847 247.5L847.56 248L848 248.33L849 248.66L849.5 249L850 249.34L851 249.66L851.5 250L852 250.33L853 250.5L854 250.67L854.5 251L855 251.33L856 251.49L857 251.5L858 251.51L859 251.67L859.5 252L860 252.33L861 252.49L862 252.5L863 252.5L864 252.5L865 252.5L866 252.5L867 252.49L868 252.33L868.5 252L869 251.67L870 251.51L871 251.49L872 251.33L872.5 251L873 250.67L874 250.5L875 250.33L875.44 250L876 249.5L876.5 249L877 248.5L877.5 248L878 247.5L878.5 247L879 246.44L879.33 246L879.66 245L880 244.5L880.33 244L880.49 243L880.5 242L880.5 241L880.5 240L880.5 239L880.5 238L880.49 237L880.33 236L880 235.56L879.5 235L879 234.5L878.5 234L878 233.5L877.5 233L877 232.5L876.5 232L876 231.5L875.44 231L875 230.67L874 230.34L873.5 230L873 229.66L872 229.34L871.5 229L871 228.66L870 228.34L869.5 228L869 227.67L868 227.5L867 227.33L866.5 227L866 226.66L865 226.34L864.5 226L864 225.67L863 225.5L862 225.33L861.5 225L861 224.67L860 224.5L859 224.33L858.5 224L858 223.67L857 223.5L856 223.33L855.5 223L855 222.66L854 222.34L853.5 222L853 221.67L852 221.5L851 221.33L850.5 221L850 220.66L849 220.34L848.5 220L848 219.66L847 219.34L846.5 219L846 218.66L845 218.34L844.5 218L844 217.66L843 217.33L842.56 217L842 216.5L841.44 216L841 215.67L840 215.33L839.56 215L839 214.5L838.5 214L838 213.5L837.44 213L837 212.67L836 212.33L835.56 212L835 211.5L834.5 211L834 210.5L833.5 210L833 209.44L832.67 209L832.33 208L832 207.56L831.5 207L831 206.44L830.67 206L830.34 205L830 204.5L829.66 204L829.34 203L829 202.5L828.67 202L828.5 201L828.33 200L828 199.5L827.67 199L827.51 198L827.5 197L827.5 196L827.5 195L827.5 194L827.5 193L827.5 192L827.5 191L827.5 190L827.5 189L827.5 188L827.5 187L827.5 186L827.51 185L827.67 184L828 183.5L828.33 183L828.5 182L828.67 181L829 180.5L829.33 180L829.5 179L829.67 178L830 177.56L830.5 177L831 176.44L831.33 176L831.67 175L832 174.56L832.5 174L833 173.44L833.33 173L833.67 172L834 171.56L834.5 171L835 170.5L835.5 170L836 169.5L836.56 169L837 168.67L838 168.33L838.44 168L839 167.5L839.5 167L840 166.5L840.56 166L841 165.67L842 165.34L842.5 165L843 164.66L844 164.34L844.5 164L845 163.66L846 163.34L846.5 163L847 162.67L848 162.5L849 162.33L849.5 162L850 161.67L851 161.51L852 161.49L853 161.33ZM545.74 163L546 162.74L547 162.51L548 162.5L549 162.5L550 162.5L551 162.5L552 162.5L553 162.5L554 162.5L555 162.5L556 162.5L557 162.5L558 162.5L559 162.5L560 162.5L561 162.5L562 162.5L563 162.5L564 162.5L565 162.5L566 162.5L567 162.51L568 162.74L568.26 163L568.49 164L568.5 165L568.5 166L568.5 167L568.5 168L568.5 169L568.5 170L568.5 171L568.5 172L568.5 173L568.5 174L568.5 175L568.5 176L568.5 177L568.5 178L568.5 179L568.5 180L568.5 181L568.5 182L568.5 183L568.5 184L568.5 185L568.5 186L568.5 187L568.5 188L568.5 189L568.5 190L568.5 191L568.5 192L568.5 193L568.5 194L568.5 195L568.5 196L568.5 197L568.5 198L568.5 199L568.5 200L568.5 201L568.5 202L568.5 203L568.5 204L568.5 205L568.5 206L568.5 207L568.5 208L568.5 209L568.5 210L568.5 211L568.5 212L568.5 213L568.5 214L568.5 215L568.5 216L568.5 217L568.5 218L568.5 219L568.5 220L568.5 221L568.5 222L568.5 223L568.5 224L568.5 225L568.5 226L568.5 227L568.5 228L568.5 229L568.5 230L568.5 231L568.5 232L568.5 233L568.5 234L568.5 235L568.5 236L568.5 237L568.5 238L568.5 239L568.5 240L568.5 241L568.5 242L568.5 243L568.5 244L568.5 245L568.5 246L568.5 247L568.5 248L568.5 249L568.5 250L568.5 251L568.5 252L568.5 253L568.5 254L568.5 255L568.5 256L568.5 257L568.5 258L568.5 259L568.5 260L568.5 261L568.5 262L568.5 263L568.5 264L568.5 265L568.5 266L568.5 267L568.49 268L568.26 269L568 269.26L567 269.49L566 269.5L565 269.5L564 269.5L563 269.5L562 269.5L561 269.5L560 269.5L559 269.5L558 269.5L557 269.5L556 269.5L555 269.5L554 269.5L553 269.5L552 269.5L551 269.5L550 269.5L549 269.5L548 269.5L547 269.49L546 269.26L545.74 269L545.51 268L545.5 267L545.5 266L545.5 265L545.5 264L545.5 263L545.5 262L545.49 261L545.33 260L545 259.5L544.67 259L544.51 258L544.5 257L544.5 256L544.5 255L544.5 254L544.5 253L544.5 252L544.51 251L544.66 250L545 249.19L545.1 249L545 248.81L544.66 248L544.51 247L544.5 246L544.5 245L544.5 244L544.5 243L544.5 242L544.5 241L544.5 240L544.5 239L544.5 238L544.5 237L544.5 236L544.5 235L544.51 234L544.67 233L545 232.5L545.33 232L545.49 231L545.33 230L545 229.5L544.67 229L544.51 228L544.5 227L544.5 226L544.5 225L544.5 224L544.5 223L544.5 222L544.5 221L544.5 220L544.5 219L544.5 218L544.51 217L544.67 216L545 215.5L545.33 215L545.49 214L545.5 213L545.5 212L545.49 211L545.33 210L545 209.5L544.67 209L544.51 208L544.5 207L544.5 206L544.5 205L544.5 204L544.5 203L544.5 202L544.5 201L544.5 200L544.5 199L544.5 198L544.5 197L544.5 196L544.5 195L544.5 194L544.5 193L544.5 192L544.5 191L544.5 190L544.51 189L544.67 188L545 187.5L545.33 187L545.49 186L545.5 185L545.5 184L545.49 183L545.33 182L545 181.5L544.67 181L544.51 180L544.5 179L544.5 178L544.5 177L544.5 176L544.5 175L544.5 174L544.5 173L544.5 172L544.5 171L544.51 170L544.67 169L545 168.5L545.33 168L545.49 167L545.5 166L545.5 165L545.51 164ZM744 181.67L743.5 182L743 182.33L742 182.49L741 182.51L740 182.67L739.5 183L739 183.34L738 183.66L737.5 184L737 184.33L736 184.5L735 184.67L734.56 185L734 185.5L733.44 186L733 186.33L732 186.67L731.56 187L731 187.5L730.5 188L730 188.5L729.44 189L729 189.33L728 189.67L727.56 190L727 190.5L726.5 191L726 191.56L725.67 192L725.33 193L725 193.44L724.5 194L724 194.5L723.5 195L723 195.56L722.67 196L722.34 197L722 197.5L721.66 198L721.34 199L721 199.5L720.67 200L720.5 201L720.33 202L720 202.5L719.67 203L719.5 204L719.33 205L719 205.5L718.67 206L718.51 207L718.49 208L718.33 209L718 209.5L717.67 210L717.51 211L717.5 212L717.5 213L717.5 214L717.5 215L717.5 216L717.5 217L717.5 218L717.5 219L717.5 220L717.51 221L717.67 222L718 222.5L718.33 223L718.49 224L718.5 225L718.51 226L718.67 227L719 227.5L719.33 228L719.5 229L719.67 230L720 230.5L720.34 231L720.66 232L721 232.5L721.34 233L721.66 234L722 234.5L722.34 235L722.67 236L723 236.44L723.5 237L724 237.56L724.33 238L724.67 239L725 239.44L725.5 240L726 240.5L726.5 241L727 241.5L727.5 242L728 242.5L728.56 243L729 243.33L730 243.67L730.44 244L731 244.5L731.56 245L732 245.33L733 245.67L733.44 246L734 246.5L734.56 247L735 247.33L736 247.66L736.5 248L737 248.33L738 248.5L739 248.67L739.5 249L740 249.33L741 249.49L742 249.51L743 249.67L743.5 250L744 250.33L745 250.49L746 250.5L747 250.5L748 250.5L749 250.5L750 250.5L751 250.5L752 250.5L753 250.5L754 250.5L755 250.49L756 250.33L756.5 250L757 249.67L758 249.51L759 249.49L760 249.33L760.5 249L761 248.67L762 248.5L763 248.33L763.5 248L764 247.66L765 247.34L765.5 247L766 246.66L767 246.34L767.5 246L768 245.66L769 245.33L769.44 245L770 244.5L770.5 244L771 243.5L771.56 243L772 242.67L773 242.33L773.44 242L774 241.44L774.33 241L774.67 240L775 239.56L775.5 239L776 238.5L776.5 238L777 237.5L777.5 237L778 236.44L778.33 236L778.67 235L779 234.56L779.5 234L780 233.44L780.33 233L780.5 232L780.67 231L781 230.5L781.34 230L781.66 229L782 228.5L782.33 228L782.5 227L782.67 226L783 225.5L783.33 225L783.49 224L783.5 223L783.5 222L783.51 221L783.67 220L784 219.5L784.33 219L784.49 218L784.5 217L784.5 216L784.5 215L784.49 214L784.33 213L784 212.5L783.67 212L783.51 211L783.5 210L783.49 209L783.33 208L783 207.5L782.67 207L782.51 206L782.49 205L782.33 204L782 203.5L781.66 203L781.34 202L781 201.5L780.66 201L780.34 200L780 199.5L779.66 199L779.34 198L779 197.5L778.66 197L778.33 196L778 195.56L777.5 195L777 194.5L776.5 194L776 193.5L775.5 193L775 192.5L774.5 192L774 191.5L773.5 191L773 190.5L772.5 190L772 189.5L771.5 189L771 188.5L770.44 188L770 187.67L769 187.33L768.56 187L768 186.5L767.44 186L767 185.67L766 185.34L765.5 185L765 184.66L764 184.34L763.5 184L763 183.67L762 183.5L761 183.33L760.5 183L760 182.67L759 182.51L758 182.5L757 182.49L756 182.33L755.5 182L755 181.67L754 181.51L753 181.5L752 181.5L751 181.5L750 181.5L749 181.5L748 181.5L747 181.5L746 181.5L745 181.51ZM965 181.67L964.5 182L964 182.33L963 182.49L962 182.51L961 182.67L960.5 183L960 183.33L959 183.5L958 183.67L957.5 184L957 184.34L956 184.66L955.5 185L955 185.34L954 185.66L953.5 186L953 186.34L952 186.67L951.56 187L951 187.5L950.5 188L950 188.5L949.5 189L949 189.5L948.5 190L948 190.5L947.5 191L947 191.5L946.5 192L946 192.5L945.5 193L945 193.5L944.5 194L944 194.56L943.67 195L943.34 196L943 196.5L942.66 197L942.34 198L942 198.5L941.66 199L941.34 200L941 200.5L940.66 201L940.34 202L940 202.5L939.67 203L939.5 204L939.33 205L939 205.5L938.67 206L938.51 207L938.5 208L938.5 209L938.49 210L938.33 211L938 211.5L937.67 212L937.51 213L937.5 214L937.5 215L937.5 216L937.5 217L937.5 218L937.51 219L937.67 220L938 220.5L938.33 221L938.49 222L938.5 223L938.5 224L938.51 225L938.67 226L939 226.5L939.33 227L939.5 228L939.67 229L940 229.5L940.34 230L940.66 231L941 231.5L941.34 232L941.66 233L942 233.5L942.34 234L942.66 235L943 235.5L943.34 236L943.67 237L944 237.44L944.5 238L945 238.5L945.5 239L946 239.56L946.33 240L946.67 241L947 241.44L947.56 242L948 242.33L949 242.67L949.44 243L950 243.5L950.5 244L951 244.5L951.56 245L952 245.33L953 245.66L953.5 246L954 246.34L955 246.66L955.5 247L956 247.34L957 247.66L957.5 248L958 248.34L959 248.66L959.5 249L960 249.33L961 249.49L962 249.51L963 249.67L963.5 250L964 250.33L965 250.49L966 250.5L967 250.5L968 250.5L969 250.5L970 250.5L971 250.5L972 250.5L973 250.5L974 250.5L975 250.49L976 250.33L976.5 250L977 249.67L978 249.51L979 249.49L980 249.33L980.5 249L981 248.67L982 248.5L983 248.33L983.5 248L984 247.66L985 247.34L985.5 247L986 246.66L987 246.34L987.5 246L988 245.66L989 245.33L989.44 245L990 244.5L990.56 244L991 243.67L992 243.33L992.44 243L993 242.5L993.5 242L994 241.5L994.5 241L995 240.5L995.5 240L996 239.44L996.33 239L996.67 238L997 237.56L997.5 237L998 236.44L998.33 236L998.67 235L999 234.56L999.5 234L1000 233.44L1000.33 233L1000.66 232L1001 231.5L1001.33 231L1001.5 230L1001.67 229L1002 228.5L1002.33 228L1002.5 227L1002.67 226L1003 225.5L1003.33 225L1003.49 224L1003.5 223L1003.51 222L1003.67 221L1004 220.5L1004.33 220L1004.49 219L1004.5 218L1004.5 217L1004.5 216L1004.5 215L1004.5 214L1004.49 213L1004.33 212L1004 211.5L1003.67 211L1003.51 210L1003.5 209L1003.49 208L1003.33 207L1003 206.5L1002.67 206L1002.5 205L1002.33 204L1002 203.5L1001.67 203L1001.5 202L1001.33 201L1001 200.5L1000.66 200L1000.34 199L1000 198.5L999.66 198L999.33 197L999 196.56L998.5 196L998 195.5L997.5 195L997 194.5L996.5 194L996 193.5L995.5 193L995 192.5L994.5 192L994 191.5L993.5 191L993 190.5L992.5 190L992 189.5L991.5 189L991 188.5L990.5 188L990 187.5L989.44 187L989 186.67L988 186.34L987.5 186L987 185.66L986 185.34L985.5 185L985 184.66L984 184.34L983.5 184L983 183.67L982 183.5L981 183.33L980.5 183L980 182.67L979 182.51L978 182.49L977 182.33L976.5 182L976 181.67L975 181.51L974 181.5L973 181.5L972 181.5L971 181.5L970 181.5L969 181.5L968 181.5L967 181.5L966 181.51Z"/>
  <path id="color-7" fill="#2F80ED" fill-rule="evenodd" d="M1059.74 114L1060 113.74L1061 113.51L1062 113.5L1063 113.5L1064 113.5L1065 113.5L1066 113.5L1067 113.5L1068 113.5L1069 113.5L1070 113.5L1071 113.5L1072 113.5L1073 113.5L1074 113.5L1075 113.5L1076 113.5L1077 113.5L1078 113.5L1079 113.5L1080 113.5L1081 113.5L1082 113.5L1083 113.5L1084 113.5L1085 113.5L1086 113.5L1087 113.5L1088 113.5L1089 113.5L1090 113.5L1091 113.5L1092 113.5L1093 113.5L1094 113.5L1095 113.5L1096 113.5L1097 113.5L1098 113.5L1099 113.5L1100 113.5L1101 113.5L1102 113.5L1103 113.5L1104 113.5L1105 113.5L1106 113.5L1107 113.5L1108 113.5L1109 113.5L1110 113.5L1111 113.5L1112 113.5L1113 113.5L1114 113.5L1115 113.5L1116 113.5L1117 113.5L1118 113.5L1119 113.5L1120 113.51L1121 113.67L1121.5 114L1122 114.33L1123 114.49L1124 114.5L1125 114.51L1126 114.67L1126.5 115L1127 115.33L1128 115.5L1129 115.67L1129.5 116L1130 116.33L1131 116.5L1132 116.67L1132.5 117L1133 117.33L1134 117.5L1135 117.67L1135.5 118L1136 118.34L1137 118.66L1137.5 119L1138 119.34L1139 119.67L1139.44 120L1140 120.5L1140.56 121L1141 121.33L1142 121.67L1142.44 122L1143 122.5L1143.5 123L1144 123.5L1144.56 124L1145 124.33L1146 124.67L1146.44 125L1147 125.5L1147.5 126L1148 126.5L1148.5 127L1149 127.5L1149.5 128L1150 128.5L1150.5 129L1151 129.56L1151.33 130L1151.67 131L1152 131.44L1152.5 132L1153 132.5L1153.5 133L1154 133.56L1154.33 134L1154.67 135L1155 135.44L1155.5 136L1156 136.56L1156.33 137L1156.66 138L1157 138.5L1157.34 139L1157.66 140L1158 140.5L1158.33 141L1158.5 142L1158.67 143L1159 143.5L1159.34 144L1159.66 145L1160 145.5L1160.33 146L1160.49 147L1160.51 148L1160.67 149L1161 149.5L1161.33 150L1161.49 151L1161.5 152L1161.5 153L1161.51 154L1161.67 155L1162 155.5L1162.33 156L1162.49 157L1162.5 158L1162.5 159L1162.5 160L1162.5 161L1162.5 162L1162.5 163L1162.5 164L1162.5 165L1162.5 166L1162.49 167L1162.33 168L1162 168.5L1161.67 169L1161.51 170L1161.5 171L1161.5 172L1161.49 173L1161.33 174L1161 174.5L1160.67 175L1160.5 176L1160.33 177L1160 177.5L1159.67 178L1159.5 179L1159.33 180L1159 180.5L1158.67 181L1158.5 182L1158.33 183L1158 183.5L1157.66 184L1157.34 185L1157 185.5L1156.66 186L1156.33 187L1156 187.44L1155.5 188L1155 188.56L1154.67 189L1154.33 190L1154 190.44L1153.5 191L1153 191.5L1152.5 192L1152 192.56L1151.67 193L1151.33 194L1151 194.44L1150.5 195L1150 195.5L1149.5 196L1149 196.5L1148.5 197L1148 197.5L1147.5 198L1147 198.5L1146.44 199L1146 199.33L1145 199.67L1144.56 200L1144 200.5L1143.5 201L1143 201.5L1142.44 202L1142 202.33L1141 202.66L1140.5 203L1140 203.34L1139 203.66L1138.5 204L1138 204.34L1137 204.66L1136.5 205L1136 205.34L1135 205.66L1134.5 206L1134 206.34L1133 206.66L1132.5 207L1132 207.33L1131 207.5L1130 207.67L1129.5 208L1129 208.33L1128 208.49L1127 208.51L1126 208.67L1125.5 209L1125 209.33L1124 209.49L1123 209.5L1122 209.51L1121 209.67L1120.5 210L1120 210.33L1119 210.49L1118 210.5L1117 210.5L1116 210.5L1115 210.5L1114 210.5L1113 210.5L1112 210.5L1111 210.5L1110 210.5L1109 210.5L1108 210.5L1107 210.5L1106 210.5L1105 210.5L1104 210.5L1103 210.5L1102 210.5L1101 210.5L1100 210.5L1099 210.5L1098 210.5L1097 210.5L1096 210.5L1095 210.5L1094 210.5L1093 210.5L1092 210.5L1091 210.5L1090 210.5L1089 210.5L1088 210.5L1087 210.5L1086 210.5L1085 210.51L1084 210.67L1083.57 211L1083 211.57L1082.67 212L1082.51 213L1082.5 214L1082.5 215L1082.5 216L1082.5 217L1082.5 218L1082.5 219L1082.5 220L1082.5 221L1082.5 222L1082.5 223L1082.5 224L1082.5 225L1082.5 226L1082.5 227L1082.5 228L1082.5 229L1082.5 230L1082.5 231L1082.5 232L1082.5 233L1082.5 234L1082.5 235L1082.5 236L1082.5 237L1082.5 238L1082.5 239L1082.5 240L1082.5 241L1082.5 242L1082.5 243L1082.5 244L1082.5 245L1082.5 246L1082.5 247L1082.5 248L1082.5 249L1082.5 250L1082.5 251L1082.5 252L1082.5 253L1082.5 254L1082.5 255L1082.5 256L1082.5 257L1082.5 258L1082.5 259L1082.5 260L1082.5 261L1082.5 262L1082.5 263L1082.5 264L1082.5 265L1082.5 266L1082.49 267L1082.33 268L1082 268.43L1081.43 269L1081 269.33L1080 269.49L1079 269.5L1078 269.5L1077 269.5L1076 269.5L1075 269.5L1074 269.5L1073 269.5L1072 269.5L1071 269.5L1070 269.5L1069 269.5L1068 269.5L1067 269.5L1066 269.5L1065 269.5L1064 269.5L1063 269.5L1062 269.5L1061 269.49L1060 269.26L1059.74 269L1059.51 268L1059.5 267L1059.5 266L1059.5 265L1059.5 264L1059.5 263L1059.5 262L1059.5 261L1059.5 260L1059.5 259L1059.5 258L1059.5 257L1059.5 256L1059.5 255L1059.5 254L1059.5 253L1059.5 252L1059.5 251L1059.5 250L1059.5 249L1059.5 248L1059.5 247L1059.5 246L1059.5 245L1059.5 244L1059.5 243L1059.5 242L1059.5 241L1059.5 240L1059.5 239L1059.5 238L1059.5 237L1059.5 236L1059.5 235L1059.5 234L1059.5 233L1059.5 232L1059.5 231L1059.5 230L1059.5 229L1059.5 228L1059.5 227L1059.5 226L1059.5 225L1059.5 224L1059.5 223L1059.5 222L1059.5 221L1059.5 220L1059.5 219L1059.5 218L1059.5 217L1059.5 216L1059.5 215L1059.5 214L1059.5 213L1059.5 212L1059.5 211L1059.5 210L1059.5 209L1059.5 208L1059.5 207L1059.5 206L1059.5 205L1059.5 204L1059.5 203L1059.5 202L1059.5 201L1059.5 200L1059.5 199L1059.5 198L1059.5 197L1059.5 196L1059.5 195L1059.5 194L1059.5 193L1059.5 192L1059.5 191L1059.5 190L1059.5 189L1059.5 188L1059.5 187L1059.5 186L1059.5 185L1059.5 184L1059.5 183L1059.5 182L1059.5 181L1059.5 180L1059.5 179L1059.5 178L1059.5 177L1059.5 176L1059.5 175L1059.5 174L1059.5 173L1059.5 172L1059.5 171L1059.5 170L1059.5 169L1059.5 168L1059.5 167L1059.5 166L1059.5 165L1059.5 164L1059.5 163L1059.5 162L1059.5 161L1059.5 160L1059.5 159L1059.5 158L1059.5 157L1059.5 156L1059.5 155L1059.5 154L1059.5 153L1059.5 152L1059.5 151L1059.5 150L1059.5 149L1059.5 148L1059.5 147L1059.5 146L1059.5 145L1059.5 144L1059.5 143L1059.5 142L1059.5 141L1059.5 140L1059.5 139L1059.5 138L1059.5 137L1059.5 136L1059.5 135L1059.5 134L1059.5 133L1059.5 132L1059.5 131L1059.5 130L1059.5 129L1059.5 128L1059.5 127L1059.5 126L1059.5 125L1059.5 124L1059.5 123L1059.5 122L1059.5 121L1059.5 120L1059.5 119L1059.5 118L1059.5 117L1059.5 116L1059.51 115ZM1084 135.67L1083.57 136L1083 136.57L1082.67 137L1082.51 138L1082.5 139L1082.5 140L1082.5 141L1082.5 142L1082.5 143L1082.5 144L1082.5 145L1082.5 146L1082.5 147L1082.5 148L1082.5 149L1082.5 150L1082.5 151L1082.5 152L1082.5 153L1082.5 154L1082.5 155L1082.5 156L1082.5 157L1082.5 158L1082.5 159L1082.5 160L1082.5 161L1082.5 162L1082.5 163L1082.5 164L1082.5 165L1082.5 166L1082.5 167L1082.5 168L1082.5 169L1082.5 170L1082.5 171L1082.5 172L1082.5 173L1082.5 174L1082.5 175L1082.5 176L1082.5 177L1082.5 178L1082.5 179L1082.5 180L1082.5 181L1082.5 182L1082.5 183L1082.5 184L1082.5 185L1082.51 186L1082.67 187L1083 187.43L1083.57 188L1084 188.33L1085 188.49L1086 188.5L1087 188.5L1088 188.5L1089 188.5L1090 188.5L1091 188.5L1092 188.5L1093 188.5L1094 188.5L1095 188.5L1096 188.5L1097 188.5L1098 188.5L1099 188.5L1100 188.5L1101 188.5L1102 188.5L1103 188.5L1104 188.5L1105 188.5L1106 188.5L1107 188.5L1108 188.5L1109 188.5L1110 188.5L1111 188.5L1112 188.5L1113 188.5L1114 188.5L1115 188.5L1116 188.5L1117 188.49L1118 188.33L1118.5 188L1119 187.67L1120 187.5L1121 187.33L1121.5 187L1122 186.67L1123 186.5L1124 186.33L1124.5 186L1125 185.66L1126 185.33L1126.44 185L1127 184.5L1127.56 184L1128 183.67L1129 183.33L1129.44 183L1130 182.5L1130.5 182L1131 181.5L1131.5 181L1132 180.5L1132.5 180L1133 179.44L1133.33 179L1133.67 178L1134 177.56L1134.5 177L1135 176.44L1135.33 176L1135.66 175L1136 174.5L1136.34 174L1136.66 173L1137 172.5L1137.33 172L1137.49 171L1137.51 170L1137.67 169L1138 168.5L1138.33 168L1138.49 167L1138.5 166L1138.5 165L1138.5 164L1138.5 163L1138.5 162L1138.5 161L1138.5 160L1138.5 159L1138.5 158L1138.5 157L1138.49 156L1138.33 155L1138 154.5L1137.67 154L1137.5 153L1137.33 152L1137 151.5L1136.66 151L1136.34 150L1136 149.5L1135.66 149L1135.34 148L1135 147.5L1134.66 147L1134.33 146L1134 145.56L1133.5 145L1133 144.5L1132.5 144L1132 143.5L1131.5 143L1131 142.5L1130.5 142L1130 141.5L1129.5 141L1129 140.5L1128.44 140L1128 139.67L1127 139.34L1126.5 139L1126 138.66L1125 138.34L1124.5 138L1124 137.66L1123 137.34L1122.5 137L1122 136.67L1121 136.51L1120 136.49L1119 136.33L1118.5 136L1118 135.67L1117 135.51L1116 135.5L1115 135.5L1114 135.5L1113 135.5L1112 135.5L1111 135.5L1110 135.5L1109 135.5L1108 135.5L1107 135.5L1106 135.5L1105 135.5L1104 135.5L1103 135.5L1102 135.5L1101 135.5L1100 135.5L1099 135.5L1098 135.5L1097 135.5L1096 135.5L1095 135.5L1094 135.5L1093 135.5L1092 135.5L1091 135.5L1090 135.5L1089 135.5L1088 135.5L1087 135.5L1086 135.5L1085 135.51Z"/>
  <path id="color-8" fill="#F4B400" fill-rule="evenodd" d="M1170.75 163L1171 162.75L1172 162.51L1173 162.5L1174 162.5L1175 162.5L1176 162.5L1177 162.5L1178 162.5L1179 162.5L1180 162.5L1181 162.5L1182 162.5L1183 162.5L1184 162.5L1185 162.5L1186 162.5L1187 162.5L1188 162.5L1189 162.5L1190 162.5L1191 162.5L1192 162.5L1193 162.51L1194 162.74L1194.26 163L1194.5 164L1194.67 165L1195 165.5L1195.34 166L1195.66 167L1196 167.5L1196.33 168L1196.5 169L1196.67 170L1197 170.5L1197.33 171L1197.5 172L1197.67 173L1198 173.5L1198.33 174L1198.5 175L1198.67 176L1199 176.5L1199.34 177L1199.66 178L1200 178.5L1200.33 179L1200.5 180L1200.67 181L1201 181.5L1201.34 182L1201.66 183L1202 183.5L1202.33 184L1202.5 185L1202.67 186L1203 186.5L1203.33 187L1203.5 188L1203.67 189L1204 189.5L1204.34 190L1204.66 191L1205 191.5L1205.33 192L1205.5 193L1205.67 194L1206 194.5L1206.33 195L1206.5 196L1206.67 197L1207 197.5L1207.34 198L1207.66 199L1208 199.5L1208.33 200L1208.5 201L1208.67 202L1209 202.5L1209.33 203L1209.5 204L1209.67 205L1210 205.5L1210.34 206L1210.66 207L1211 207.5L1211.33 208L1211.5 209L1211.67 210L1212 210.5L1212.34 211L1212.66 212L1213 212.5L1213.33 213L1213.5 214L1213.67 215L1214 215.5L1214.33 216L1214.5 217L1214.67 218L1215 218.5L1215.34 219L1215.66 220L1216 220.5L1216.33 221L1216.5 222L1216.67 223L1217 223.5L1217.33 224L1217.5 225L1217.67 226L1218 226.5L1218.33 227L1218.5 228L1218.67 229L1219 229.5L1219.34 230L1219.66 231L1220 231.5L1220.34 232L1220.68 233L1221 233.42L1222 233.98L1222.62 233L1223 232.49L1223.33 232L1223.5 231L1223.67 230L1224 229.5L1224.33 229L1224.5 228L1224.67 227L1225 226.5L1225.33 226L1225.5 225L1225.67 224L1226 223.5L1226.33 223L1226.5 222L1226.67 221L1227 220.5L1227.33 220L1227.5 219L1227.67 218L1228 217.5L1228.34 217L1228.66 216L1229 215.5L1229.33 215L1229.5 214L1229.67 213L1230 212.5L1230.33 212L1230.5 211L1230.67 210L1231 209.5L1231.33 209L1231.5 208L1231.67 207L1232 206.5L1232.33 206L1232.5 205L1232.67 204L1233 203.5L1233.33 203L1233.5 202L1233.67 201L1234 200.5L1234.33 200L1234.5 199L1234.67 198L1235 197.5L1235.33 197L1235.5 196L1235.67 195L1236 194.5L1236.33 194L1236.5 193L1236.67 192L1237 191.5L1237.33 191L1237.5 190L1237.67 189L1238 188.5L1238.33 188L1238.5 187L1238.67 186L1239 185.5L1239.34 185L1239.66 184L1240 183.5L1240.33 183L1240.5 182L1240.67 181L1241 180.5L1241.33 180L1241.5 179L1241.67 178L1242 177.5L1242.33 177L1242.5 176L1242.67 175L1243 174.5L1243.33 174L1243.5 173L1243.67 172L1244 171.5L1244.34 171L1244.66 170L1245 169.5L1245.33 169L1245.5 168L1245.67 167L1246 166.5L1246.33 166L1246.5 165L1246.67 164L1247 163.57L1247.57 163L1248 162.67L1249 162.51L1250 162.5L1251 162.5L1252 162.5L1253 162.5L1254 162.5L1255 162.5L1256 162.5L1257 162.5L1258 162.5L1259 162.5L1260 162.5L1261 162.5L1262 162.5L1263 162.5L1264 162.5L1265 162.5L1266 162.5L1267 162.5L1268 162.51L1269 162.74L1269.26 163L1269.48 164L1269.33 165L1269 165.5L1268.67 166L1268.5 167L1268.33 168L1268 168.5L1267.67 169L1267.5 170L1267.33 171L1267 171.5L1266.67 172L1266.5 173L1266.33 174L1266 174.5L1265.66 175L1265.34 176L1265 176.5L1264.67 177L1264.5 178L1264.33 179L1264 179.5L1263.67 180L1263.5 181L1263.33 182L1263 182.5L1262.66 183L1262.34 184L1262 184.5L1261.67 185L1261.5 186L1261.33 187L1261 187.5L1260.67 188L1260.5 189L1260.33 190L1260 190.5L1259.67 191L1259.5 192L1259.33 193L1259 193.5L1258.66 194L1258.34 195L1258 195.5L1257.67 196L1257.5 197L1257.33 198L1257 198.5L1256.67 199L1256.5 200L1256.33 201L1256 201.5L1255.66 202L1255.34 203L1255 203.5L1254.67 204L1254.5 205L1254.33 206L1254 206.5L1253.67 207L1253.5 208L1253.33 209L1253 209.5L1252.67 210L1252.5 211L1252.33 212L1252 212.5L1251.66 213L1251.34 214L1251 214.5L1250.67 215L1250.5 216L1250.33 217L1250 217.5L1249.67 218L1249.5 219L1249.33 220L1249 220.5L1248.67 221L1248.5 222L1248.33 223L1248 223.5L1247.66 224L1247.34 225L1247 225.5L1246.67 226L1246.5 227L1246.33 228L1246 228.5L1245.67 229L1245.5 230L1245.33 231L1245 231.5L1244.67 232L1244.5 233L1244.33 234L1244 234.5L1243.67 235L1243.5 236L1243.33 237L1243 237.5L1242.66 238L1242.34 239L1242 239.5L1241.67 240L1241.5 241L1241.33 242L1241 242.5L1240.67 243L1240.5 244L1240.33 245L1240 245.5L1239.67 246L1239.5 247L1239.33 248L1239 248.5L1238.67 249L1238.5 250L1238.33 251L1238 251.5L1237.67 252L1237.5 253L1237.33 254L1237 254.5L1236.66 255L1236.34 256L1236 256.5L1235.67 257L1235.5 258L1235.33 259L1235 259.5L1234.67 260L1234.5 261L1234.33 262L1234 262.5L1233.67 263L1233.5 264L1233.33 265L1233 265.5L1232.66 266L1232.34 267L1232 267.5L1231.67 268L1231.5 269L1231.33 270L1231 270.5L1230.67 271L1230.5 272L1230.33 273L1230 273.5L1229.67 274L1229.5 275L1229.33 276L1229 276.5L1228.66 277L1228.34 278L1228 278.5L1227.67 279L1227.5 280L1227.33 281L1227 281.5L1226.67 282L1226.5 283L1226.33 284L1226 284.5L1225.66 285L1225.34 286L1225 286.5L1224.67 287L1224.5 288L1224.33 289L1224 289.5L1223.67 290L1223.5 291L1223.33 292L1223 292.5L1222.67 293L1222.5 294L1222.33 295L1222 295.5L1221.66 296L1221.34 297L1221 297.5L1220.66 298L1220.33 299L1220 299.44L1219.5 300L1219 300.56L1218.67 301L1218.34 302L1218 302.5L1217.66 303L1217.33 304L1217 304.44L1216.5 305L1216 305.5L1215.5 306L1215 306.5L1214.5 307L1214 307.5L1213.5 308L1213 308.5L1212.5 309L1212 309.5L1211.44 310L1211 310.33L1210 310.66L1209.5 311L1209 311.34L1208 311.66L1207.5 312L1207 312.33L1206 312.5L1205 312.67L1204.5 313L1204 313.33L1203 313.49L1202 313.51L1201 313.67L1200.5 314L1200 314.33L1199 314.49L1198 314.5L1197 314.5L1196 314.5L1195 314.5L1194 314.5L1193 314.5L1192 314.5L1191 314.5L1190 314.5L1189 314.5L1188 314.5L1187 314.5L1186 314.5L1185 314.5L1184 314.49L1183 314.33L1182.5 314L1182 313.67L1181 313.51L1180 313.49L1179 313.26L1178.74 313L1178.51 312L1178.51 311L1178.67 310L1179 309.5L1179.33 309L1179.49 308L1179.51 307L1179.67 306L1180 305.5L1180.33 305L1180.49 304L1180.51 303L1180.67 302L1181 301.5L1181.33 301L1181.49 300L1181.51 299L1181.67 298L1182 297.5L1182.33 297L1182.5 296L1182.74 295L1183 294.74L1184 294.51L1185 294.5L1186 294.5L1187 294.5L1188 294.5L1189 294.5L1190 294.5L1191 294.5L1192 294.5L1193 294.5L1194 294.49L1195 294.33L1195.5 294L1196 293.66L1197 293.34L1197.5 293L1198 292.66L1199 292.33L1199.44 292L1200 291.5L1200.5 291L1201 290.44L1201.33 290L1201.66 289L1202 288.5L1202.34 288L1202.66 287L1203 286.5L1203.34 286L1203.66 285L1204 284.5L1204.33 284L1204.5 283L1204.67 282L1205 281.5L1205.34 281L1205.66 280L1206 279.5L1206.33 279L1206.5 278L1206.67 277L1207 276.5L1207.33 276L1207.5 275L1207.67 274L1208 273.5L1208.33 273L1208.5 272L1208.67 271L1209 270.5L1209.33 270L1209.5 269L1209.67 268L1210 267.5L1210.33 267L1210.49 266L1210.5 265L1210.5 264L1210.49 263L1210.33 262L1210 261.5L1209.67 261L1209.5 260L1209.33 259L1209 258.5L1208.66 258L1208.34 257L1208 256.5L1207.67 256L1207.5 255L1207.33 254L1207 253.5L1206.66 253L1206.34 252L1206 251.5L1205.67 251L1205.5 250L1205.33 249L1205 248.5L1204.66 248L1204.34 247L1204 246.5L1203.67 246L1203.5 245L1203.33 244L1203 243.5L1202.66 243L1202.34 242L1202 241.5L1201.67 241L1201.5 240L1201.33 239L1201 238.5L1200.66 238L1200.34 237L1200 236.5L1199.67 236L1199.5 235L1199.33 234L1199 233.5L1198.66 233L1198.34 232L1198 231.5L1197.67 231L1197.5 230L1197.33 229L1197 228.5L1196.66 228L1196.34 227L1196 226.5L1195.67 226L1195.5 225L1195.33 224L1195 223.5L1194.66 223L1194.34 222L1194 221.5L1193.67 221L1193.5 220L1193.33 219L1193 218.5L1192.66 218L1192.34 217L1192 216.5L1191.67 216L1191.5 215L1191.33 214L1191 213.5L1190.66 213L1190.34 212L1190 211.5L1189.67 211L1189.5 210L1189.33 209L1189 208.5L1188.66 208L1188.34 207L1188 206.5L1187.66 206L1187.34 205L1187 204.5L1186.67 204L1186.5 203L1186.33 202L1186 201.5L1185.66 201L1185.34 200L1185 199.5L1184.67 199L1184.5 198L1184.33 197L1184 196.5L1183.66 196L1183.34 195L1183 194.5L1182.67 194L1182.5 193L1182.33 192L1182 191.5L1181.67 191L1181.5 190L1181.33 189L1181 188.5L1180.66 188L1180.34 187L1180 186.5L1179.66 186L1179.34 185L1179 184.5L1178.67 184L1178.5 183L1178.33 182L1178 181.5L1177.66 181L1177.34 180L1177 179.5L1176.67 179L1176.5 178L1176.33 177L1176 176.5L1175.66 176L1175.34 175L1175 174.5L1174.67 174L1174.5 173L1174.33 172L1174 171.5L1173.66 171L1173.34 170L1173 169.5L1172.67 169L1172.5 168L1172.33 167L1172 166.5L1171.66 166L1171.34 165L1171 164.48L1170.68 164Z"/>
</g>
</svg>
